<svg id="eSbKrz87luj1" xmlns="http://www.w3.org/2000/svg" xmlns:xlink="http://www.w3.org/1999/xlink" viewBox="0 0 1500 1000" shape-rendering="geometricPrecision" text-rendering="geometricPrecision">
<style><![CDATA[
#eSbKrz87luj365_to {animation: eSbKrz87luj365_to__to 3000ms linear infinite normal forwards}@keyframes eSbKrz87luj365_to__to { 0% {transform: translate(1006.862549px,597.200012px)} 50% {transform: translate(1010.825013px,564.699988px)} 100% {transform: translate(1000.200031px,522.172607px)}} #eSbKrz87luj486_tr {animation: eSbKrz87luj486_tr__tr 3000ms linear infinite normal forwards}@keyframes eSbKrz87luj486_tr__tr { 0% {transform: translate(457.300003px,601.650024px) rotate(0deg)} 23.333333% {transform: translate(457.300003px,601.650024px) rotate(5deg)} 50% {transform: translate(457.300003px,601.650024px) rotate(0deg)} 73.333333% {transform: translate(457.300003px,601.650024px) rotate(-5deg)} 100% {transform: translate(457.300003px,601.650024px) rotate(0deg)}} #eSbKrz87luj509_tr {animation: eSbKrz87luj509_tr__tr 3000ms linear infinite normal forwards}@keyframes eSbKrz87luj509_tr__tr { 0% {transform: translate(503.349991px,601.300018px) rotate(0deg)} 23.333333% {transform: translate(503.349991px,601.300018px) rotate(-5deg)} 50% {transform: translate(503.349991px,601.300018px) rotate(0deg)} 73.333333% {transform: translate(503.349991px,601.300018px) rotate(5deg)} 100% {transform: translate(503.349991px,601.300018px) rotate(0deg)}} #eSbKrz87luj533_tr {animation: eSbKrz87luj533_tr__tr 3000ms linear infinite normal forwards}@keyframes eSbKrz87luj533_tr__tr { 0% {transform: translate(551.299988px,601.800018px) rotate(0deg)} 23.333333% {transform: translate(551.299988px,601.800018px) rotate(5deg)} 50% {transform: translate(551.299988px,601.800018px) rotate(0deg)} 73.333333% {transform: translate(551.299988px,601.800018px) rotate(-5deg)} 100% {transform: translate(551.299988px,601.800018px) rotate(0deg)}} #eSbKrz87luj556_tr {animation: eSbKrz87luj556_tr__tr 3000ms linear infinite normal forwards}@keyframes eSbKrz87luj556_tr__tr { 0% {transform: translate(601.299988px,601.350037px) rotate(0deg)} 23.333333% {transform: translate(601.299988px,601.350037px) rotate(-5deg)} 50% {transform: translate(601.299988px,601.350037px) rotate(0deg)} 73.333333% {transform: translate(601.299988px,601.350037px) rotate(5deg)} 100% {transform: translate(601.299988px,601.350037px) rotate(0deg)}} #eSbKrz87luj582_tr {animation: eSbKrz87luj582_tr__tr 3000ms linear infinite normal forwards}@keyframes eSbKrz87luj582_tr__tr { 0% {transform: translate(211.574982px,593.350006px) rotate(0deg)} 33.333333% {transform: translate(211.574982px,593.350006px) rotate(10deg)} 66.666667% {transform: translate(211.574982px,593.350006px) rotate(-5deg)} 100% {transform: translate(211.574982px,593.350006px) rotate(0deg)}} #eSbKrz87luj647_to {animation: eSbKrz87luj647_to__to 3000ms linear infinite normal forwards}@keyframes eSbKrz87luj647_to__to { 0% {transform: translate(696.262482px,482.299988px)} 66.666667% {transform: translate(710.812531px,463.7px)} 100% {transform: translate(705.037568px,429.35px)}} #eSbKrz87luj655_to {animation: eSbKrz87luj655_to__to 3000ms linear infinite normal forwards}@keyframes eSbKrz87luj655_to__to { 0% {transform: translate(710.299988px,465.399994px)} 33.333333% {transform: translate(703.875012px,454.2px)} 100% {transform: translate(720.5px,430.2px)}} #eSbKrz87luj707_to {animation: eSbKrz87luj707_to__to 3000ms linear infinite normal forwards}@keyframes eSbKrz87luj707_to__to { 0% {transform: translate(920.649994px,515.05011px)} 33.333333% {transform: translate(899.649994px,479.05011px)} 100% {transform: translate(899.649994px,427.05011px)}} #eSbKrz87luj713_to {animation: eSbKrz87luj713_to__to 3000ms linear infinite normal forwards}@keyframes eSbKrz87luj713_to__to { 0% {transform: translate(884.150024px,507.050018px)} 66.666667% {transform: translate(896.85px,480.145035px)} 100% {transform: translate(896.85px,426.145035px)}} #eSbKrz87luj761_tr {animation: eSbKrz87luj761_tr__tr 3000ms linear infinite normal forwards}@keyframes eSbKrz87luj761_tr__tr { 0% {transform: translate(893.957184px,599.747131px) rotate(0deg)} 23.333333% {transform: translate(893.957184px,599.747131px) rotate(-10deg)} 50% {transform: translate(893.957184px,599.747131px) rotate(0deg)} 73.333333% {transform: translate(893.957184px,599.747131px) rotate(10deg)} 100% {transform: translate(893.957184px,599.747131px) rotate(0deg)}} #eSbKrz87luj778_tr {animation: eSbKrz87luj778_tr__tr 3000ms linear infinite normal forwards}@keyframes eSbKrz87luj778_tr__tr { 0% {transform: translate(716.574646px,555.647156px) rotate(0deg)} 23.333333% {transform: translate(716.574646px,555.647156px) rotate(-10deg)} 50% {transform: translate(716.574646px,555.647156px) rotate(0deg)} 73.333333% {transform: translate(716.574646px,555.647156px) rotate(10deg)} 100% {transform: translate(716.574646px,555.647156px) rotate(0deg)}}
]]></style>
<g><g><path d="M0,0h1500v1000h-1500L0,0Z" fill="#d4e4fb"/></g><g><path d="M1500,789.3h-1500v-485.8h1500v485.8Z" fill="#98d1fc"/></g><g opacity="0.2"><g><path d="M36.1,302.6C36,470,36,640,36.1,808.6" fill="none" stroke="#fff" stroke-width="2" stroke-miterlimit="10"/><path d="M83,304.6C84,472,84,640,83,808.5" fill="none" stroke="#fff" stroke-width="2" stroke-miterlimit="10"/><path d="M128.9,304.6c-.9,167.4-.9,335.4,0,503.9" fill="none" stroke="#fff" stroke-width="2" stroke-miterlimit="10"/><path d="M174.7,304.6c-.7,167.4-.7,335.4,0,503.9" fill="none" stroke="#fff" stroke-width="2" stroke-miterlimit="10"/><path d="M220.6,304.6c-.6,167.4-.6,335.4,0,503.9" fill="none" stroke="#fff" stroke-width="2" stroke-miterlimit="10"/><path d="M266.4,304.6c-.4,167.4-.4,335.4,0,503.9" fill="none" stroke="#fff" stroke-width="2" stroke-miterlimit="10"/><path d="M312.3,304.6c-.3,167.4-.3,335.4,0,503.9" fill="none" stroke="#fff" stroke-width="2" stroke-miterlimit="10"/><path d="M358.2,304.6c-.2,167.4-.2,335.4,0,503.9" fill="none" stroke="#fff" stroke-width="2" stroke-miterlimit="10"/><path d="M404,304.6c0,167.4,0,335.4,0,503.9" fill="none" stroke="#fff" stroke-width="2" stroke-miterlimit="10"/><path d="M449.9,304.6c.1,167.4.1,335.4,0,503.9" fill="none" stroke="#fff" stroke-width="2" stroke-miterlimit="10"/><path d="M495.7,304.6c.3,167.4.3,335.4,0,503.9" fill="none" stroke="#fff" stroke-width="2" stroke-miterlimit="10"/><path d="M541.6,304.6c.4,167.4.4,335.4,0,503.9" fill="none" stroke="#fff" stroke-width="2" stroke-miterlimit="10"/><path d="M587.4,304.6c.6,167.4.6,335.4,0,503.9" fill="none" stroke="#fff" stroke-width="2" stroke-miterlimit="10"/><path d="M633.3,304.6c.7,167.4.7,335.4,0,503.9" fill="none" stroke="#fff" stroke-width="2" stroke-miterlimit="10"/><path d="M679.2,304.6c.8,167.4.8,335.4,0,503.9" fill="none" stroke="#fff" stroke-width="2" stroke-miterlimit="10"/><path d="M725,304.6c1,167.4,1,335.4,0,503.9" fill="none" stroke="#fff" stroke-width="2" stroke-miterlimit="10"/><path d="M770.9,304.6c-.9,167.4-.9,335.4,0,503.9" fill="none" stroke="#fff" stroke-width="2" stroke-miterlimit="10"/><path d="M816.7,304.6c-.7,167.4-.7,335.4,0,503.9" fill="none" stroke="#fff" stroke-width="2" stroke-miterlimit="10"/><path d="M862.6,304.6c-.6,167.4-.6,335.4,0,503.9" fill="none" stroke="#fff" stroke-width="2" stroke-miterlimit="10"/><path d="M908.4,304.6c-.4,167.4-.4,335.4,0,503.9" fill="none" stroke="#fff" stroke-width="2" stroke-miterlimit="10"/><path d="M954.3,304.6c-.3,167.4-.3,335.4,0,503.9" fill="none" stroke="#fff" stroke-width="2" stroke-miterlimit="10"/><path d="M1000.2,304.6c-.2,167.4-.2,335.4,0,503.9" fill="none" stroke="#fff" stroke-width="2" stroke-miterlimit="10"/><path d="M1046,304.6c0,167.4,0,335.4,0,503.9" fill="none" stroke="#fff" stroke-width="2" stroke-miterlimit="10"/><path d="M1091.9,304.6c.1,167.4.1,335.4,0,503.9" fill="none" stroke="#fff" stroke-width="2" stroke-miterlimit="10"/><path d="M1137.7,304.6c.3,167.4.3,335.4,0,503.9" fill="none" stroke="#fff" stroke-width="2" stroke-miterlimit="10"/><path d="M1183.6,304.6c.4,167.4.4,335.4,0,503.9" fill="none" stroke="#fff" stroke-width="2" stroke-miterlimit="10"/><path d="M1229.4,304.6c.6,167.4.6,335.4,0,503.9" fill="none" stroke="#fff" stroke-width="2" stroke-miterlimit="10"/><path d="M1275.3,304.6c.7,167.4.7,335.4,0,503.9" fill="none" stroke="#fff" stroke-width="2" stroke-miterlimit="10"/><path d="M1321.2,304.6c.8,167.4.8,335.4,0,503.9" fill="none" stroke="#fff" stroke-width="2" stroke-miterlimit="10"/><path d="M1367,304.6c1,167.4,1,335.4,0,503.9" fill="none" stroke="#fff" stroke-width="2" stroke-miterlimit="10"/><path d="M1412.9,304.6c-.9,167.4-.9,335.4,0,503.9" fill="none" stroke="#fff" stroke-width="2" stroke-miterlimit="10"/><path d="M1458.7,304.6c-.7,167.4-.7,335.4,0,503.9" fill="none" stroke="#fff" stroke-width="2" stroke-miterlimit="10"/></g><g><path d="M1.2,345.7c499.7.3,996.6.3,1495.7,0" fill="none" stroke="#fff" stroke-width="2" stroke-miterlimit="10"/><path d="M1.2,390.7c499.7-.7,998.6-.7,1496.7,0" fill="none" stroke="#fff" stroke-width="2" stroke-miterlimit="10"/><path d="M1.3,435.6c499.6.4,998.5.4,1497.6,0" fill="none" stroke="#fff" stroke-width="2" stroke-miterlimit="10"/><path d="M1.2,480.6c499.7-.6,996.6-.6,1495.9-.1" fill="none" stroke="#fff" stroke-width="2" stroke-miterlimit="10"/><path d="M1.2,525.5c499.7.5,998.6.5,1496.9,0" fill="none" stroke="#fff" stroke-width="2" stroke-miterlimit="10"/><path d="M1.3,570.4c499.6-.4,998.5-.4,1496.5,0" fill="none" stroke="#fff" stroke-width="2" stroke-miterlimit="10"/><path d="M1.3,615.4c499.6.6,996.5.6,1496.1,0" fill="none" stroke="#fff" stroke-width="2" stroke-miterlimit="10"/><path d="M1.2,660.3c499.7-.3,996.6-.3,1495.8,0" fill="none" stroke="#fff" stroke-width="2" stroke-miterlimit="10"/><path d="M1.3,705.2q749.4,1.2,1496.7,0" fill="none" stroke="#fff" stroke-width="2" stroke-miterlimit="10"/><path d="M1.2,750.2c499.7-.2,996.6-.2,1496.5,0" fill="none" stroke="#fff" stroke-width="2" stroke-miterlimit="10"/><path d="M1.3,795.1c499.6.9,996.5.9,1496,0" fill="none" stroke="#fff" stroke-width="2" stroke-miterlimit="10"/></g></g><g><g><path d="M1500,1000h-1500v-208.9h1500v208.9Z" fill="#73bce0"/></g><path d="M1501,791L1.5,791C2,803.6,2.7,816.3,3,828.9l1498,47.3v-85.2Z" opacity="0" fill="#1e2144"/></g></g><g><g><g><g><path d="M627.3,455h-482.1c-6,0-10.9-4.9-10.9-10.9v-217.2c0-6,4.9-10.9,10.9-10.9h482.1c6,0,10.9,4.9,10.9,10.9v217.2c0,6-4.9,10.9-10.9,10.9Z" fill="#1e2144"/></g><g><path d="M620.9,448.2h-470.6c-6,0-10.9-4.9-10.9-10.8v-205.1c0-6,4.9-10.9,10.9-10.9h470.6c6,0,10.8,4.9,10.8,10.9v205.1c0,5.9-4.8,10.8-10.8,10.8Z" fill="#3bbda5"/></g></g><g><g opacity="0.3"><g><path d="M378.1,333.4v29.6l25.6,14.8L429.3,363v-29.6l-25.6-14.8-25.6,14.8Z" fill="#fff"/></g><g><g><path d="M437.5,292.1q0,12,0,24c0,.2.1.5.3.6q9.4,5.4,18.7,10.8c1.8,1,2.2,1.5,4,.5q5.4-3.1,10.7-6.1q4.5-2.6,8.9-5.2c.3-.1.4-.4.4-.6q0-8,0-16c0-2.5.3-5.1,0-7.6-.1-1.2-.9-1.4-1.9-2q-8.3-4.7-16.5-9.5c-1-.6-2.4-1.8-3.5-1.5-1.7.3-3.7,2.1-5.1,2.9q-7.8,4.5-15.7,9c-.8.5,0,1.8.8,1.3q6.4-3.7,12.8-7.4q3.5-2,7-4c.1-.1.6-.3.7-.4.3-.5,0,.3-.5-.1.4.3,1.2.6,1.7.9q7.9,4.6,15.7,9.1c.9.5,1.8,1.2,2.7,1.5.2.1.4.3.6.4.2,0-.1-.8-.3-.4-.2.5,0,1.7,0,2.3q0,2.1,0,4.1q0,5.1,0,10.3q0,1.9,0,3.9c0,.7-.3,2.2,0,2.8.2.4.7-.2,0-.1s-1.8,1.1-2.4,1.4q-4,2.3-8,4.6t-7.9,4.6c-.4.2-1.6.7-1.9,1.1s.1-.3.5.1c-.1-.2-.4-.2-.6-.4-1.9-1.5-4.4-2.5-6.5-3.7q-4.3-2.5-8.7-5.1-1.7-1-3.5-2c-.3-.1-.7-.5-1-.6-.8-.1.2-.7,0,.4.4-1.9,0-4.6,0-6.6q0-8.7,0-17.3c0-1-1.5-1-1.5,0Z" fill="#fff"/></g></g><g><g><path d="M347.4,258.5q0,7.6,0,15.2c0,1.5-.2,2.2,1.2,3q3.8,2.2,7.6,4.4q3.1,1.8,6.3,3.6c.2.2.5.2.8,0q4.9-2.8,9.8-5.7c1.5-.8,3.2-1.6,4.6-2.6.8-.6.7-1.2.7-2.1q0-6.7,0-13.3c0-1,.3-2.4-.4-3.1-.8-.8-2.4-1.4-3.4-2q-5.7-3.3-11.3-6.5c-.3-.2-.6-.2-.8,0q-7.4,4.2-14.7,8.5c-.9.5-.1,1.8.7,1.3q7.4-4.3,14.8-8.5-.4,0-.8,0q7.4,4.2,14.8,8.5-.2-.3-.4-.7q0,8.6,0,17.1.2-.4.4-.7-7.4,4.3-14.8,8.5.4,0,.8,0-7.4-4.2-14.8-8.5.2.3.4.7q0-8.5,0-17.1c0-.9-1.5-.9-1.5,0Z" fill="#fff"/></g></g><g><g><path d="M449.9,387.6q0,10.1,0,20.2c0,.7-.2,1.7,0,2.3.3.8.9,1,1.5,1.3q5,2.9,10,5.8q4.2,2.4,8.4,4.8c.2.2.5.2.7,0q6.5-3.7,13-7.5c2-1.1,4.1-2.2,6-3.4c1.1-.7.9-1.3.9-2.5q0-8.8,0-17.7c0-1.1.4-3-.4-3.9-1-1.2-3.4-2-4.7-2.7q-7.4-4.3-14.8-8.6c-.2-.1-.5-.1-.7,0q-9.8,5.7-19.5,11.3c-.8.5-.1,1.8.8,1.3q6.1-3.5,12.2-7.1q3.2-1.8,6.3-3.6c.1-.1.7-.3.8-.5.1-.4-.4.6-.6,0c.1.2,1.3.7,1.5.8q7.5,4.4,15,8.7c.8.4,1.5,1,2.4,1.3c0,.1.4.4.5.3.1,0-.1-.7-.3-.4-.2.4,0,1.8,0,2.2q0,1.9,0,3.9q0,4.7,0,9.4q0,1.9,0,3.9c0,.7-.2,1.8,0,2.5.1.3-.2.7.2.1.3-.6.1-.2-.2-.1-.7.2-1.5.9-2.2,1.3q-3.9,2.2-7.8,4.5-3.5,2-7.1,4.1c-.3.1-1.7.7-1.9,1-.1.5.4-.5.6.1c0-.1-.5-.3-.6-.3-1.8-1.5-4.2-2.5-6.2-3.6q-4-2.3-7.9-4.6-1.8-1-3.5-2c-.2-.1-.7-.5-.9-.5-.8-.1.5-.5,0,.4.2-.4,0-1.6,0-2q0-2.1,0-4.2q0-8.1,0-16.3c0-.9-1.5-.9-1.5,0Z" fill="#fff"/></g></g><g><g><path d="M344.4,406.4q0,7.5,0,15.1c0,.2.2.5.4.6q5.8,3.4,11.7,6.7c.4.3.9.7,1.3.8.7.2,1-.1,1.5-.4q3.4-1.9,6.7-3.9q2.8-1.6,5.6-3.2c.3-.1.4-.4.4-.6q0-7.6,0-15.1c0-.3-.1-.5-.4-.6q-5.8-3.4-11.7-6.8c-.4-.2-.9-.6-1.3-.8-.6-.2-1,.2-1.5.5q-3.4,1.9-6.7,3.8-2.8,1.6-5.6,3.3c-.8.4-.1,1.7.8,1.3q6.5-3.8,13-7.6-.4,0-.8,0q6.5,3.8,13.1,7.6-.2-.4-.4-.7q0,7.5,0,15.1.2-.4.4-.7-6.6,3.8-13.1,7.5.4,0,.8,0-6.5-3.7-13-7.5.1.3.3.7q0-7.6,0-15.1c0-1-1.5-1-1.5,0Z" fill="#fff"/></g></g><g><g><path d="M469.6,344.4c-.5.8-.4,2.2-.4,3.1-.1,2.1-.1,4.2-.1,6.3q.1,7.1.3,14.2q0,1.7.1,3.3c0,1,1.5,1,1.5,0-.3-7.5-.5-15-.3-22.5q0-1.3,0-2.6.1-.4.1-.8c0-.1.1-.4,0-.2.5-.9-.8-1.6-1.2-.8Z" fill="#fff"/></g></g><g><g><path d="M403.4,380.6c-.6,2.8-.2,6-.2,8.9q0,4,.1,8c0,.4.4.7.8.7q17.6,0,35.3,0q2.5,0,5,0c1,0,1-1.5,0-1.5q-17.7,0-35.3,0-2.5,0-5,0q.4.4.7.8-.1-3.8-.1-7.6c0-2.8-.5-6.1.1-8.9.2-.9-1.2-1.3-1.4-.4Z" fill="#fff"/></g></g><g><g><path d="M371.9,413.8c5.6,0,11.2,0,16.7,0c1.5,0,2.3-1.5,3.3-2.5q3.7-3.8,7.4-7.7q2.6-2.8,5.3-5.6c.7-.7-.4-1.8-1-1.1q-5.8,6.1-11.7,12.2-1.2,1.3-2.5,2.7c-.1,0-.6.5-.6.6c0-.1.7,0,.2-.1-1-.3-2.3,0-3.3,0q-2.6,0-5.3,0-4.2,0-8.5,0c-1,0-1,1.5,0,1.5Z" fill="#fff"/></g></g><g><g><path d="M377.1,276.1q8,6.9,15.9,13.8q4.6,4,9.2,8c.6.5,1.1,1,1.7,1.4-.5-.3-.2-.6-.2.3-.1.8,0,1.7,0,2.6q0,6.2,0,12.5c0,1,1.5,1,1.5,0q0-5.6,0-11.2c0-1.4.3-3.2,0-4.6-.2-.7-.5-.9-1-1.3q-9.7-8.4-19.4-16.8-3.3-2.9-6.6-5.8c-.8-.6-1.8.5-1.1,1.1Z" fill="#fff"/></g></g><g><g><path d="M434.5,298.4q-13.2,0-26.3,0-1.9,0-3.8,0c-.9,0-.9,1.5,0,1.5q13.2,0,26.4,0q1.8,0,3.7,0c1,0,1-1.5,0-1.5Z" fill="#fff"/></g></g><g><g><path d="M350.3,336.7q11.3,0,22.7,0q1.6,0,3.2,0c.9,0,.9-1.5,0-1.5q-11.4,0-22.7,0-1.6,0-3.2,0c-.9,0-.9,1.5,0,1.5Z" fill="#fff"/></g></g><g><g><path d="M483.5,288.4q10-11.1,20.1-22.3q1.4-1.6,2.8-3.2c.7-.7-.4-1.7-1-1q-10.1,11.1-20.1,22.2-1.5,1.6-2.9,3.2c-.6.7.4,1.8,1.1,1.1Z" fill="#fff"/></g></g><g><g><path d="M501,249.2q0,4.8,0,9.6c0,.3,0,.8,0,1.1.1.6.5.7.9,1q2.4,1.4,4.8,2.7q2,1.2,4,2.4c.2.1.5.1.8,0q3.1-1.8,6.2-3.6c.9-.6,2-1.1,2.9-1.7.6-.4.5-.9.5-1.5q0-4.3,0-8.5c0-.7.2-1.7-.3-2.1-.6-.6-1.5-.9-2.2-1.3q-3.6-2.1-7.1-4.1c-.3-.1-.6-.1-.8,0q-4.6,2.7-9.3,5.4c-.8.4-.1,1.7.8,1.2q4.6-2.6,9.3-5.3-.4,0-.8,0q4.7,2.7,9.3,5.3-.2-.3-.4-.6q0,5.4,0,10.7.2-.3.4-.6-4.6,2.7-9.3,5.4.4,0,.8,0-4.7-2.7-9.3-5.4.2.3.3.6q0-5.3,0-10.7c0-1-1.5-1-1.5,0Z" fill="#fff"/></g></g><g><path d="M232.1,268.5v29.6l25.7,14.8l25.6-14.8v-29.6l-25.6-14.8-25.7,14.8Z" fill="#fff"/></g><g><g><path d="M304,322.8q0,10,0,20.1c0,.7-.2,1.7,0,2.4s.8.9,1.5,1.3q4.9,2.8,9.9,5.7q4.2,2.4,8.4,4.9c.2.1.5.1.8,0q6.5-3.8,13-7.5c2-1.2,4-2.3,6-3.5c1-.7.8-1.3.8-2.5q0-8.8,0-17.7c0-1.1.4-3-.4-3.9-1-1.1-3.4-1.9-4.7-2.7q-7.4-4.3-14.7-8.5c-.3-.2-.6-.2-.8,0q-9.7,5.6-19.5,11.2c-.8.5-.1,1.8.8,1.3q6.1-3.5,12.2-7.1q3.2-1.8,6.3-3.6c.1-.1.7-.3.8-.4.2-.5-.3.5-.6-.1.1.3,1.3.7,1.6.9q7.4,4.3,14.9,8.6c.8.4,1.6,1,2.4,1.4.1,0,.4.3.5.3s-.1-.8-.3-.4c-.2.3,0,1.7,0,2.1q0,2,0,3.9q0,4.7,0,9.4q0,2,0,3.9c0,.8-.2,1.8,0,2.6.1.2-.2.6.2,0s.1-.1-.2-.1c-.7.2-1.5.9-2.2,1.3q-3.8,2.2-7.7,4.5-3.6,2-7.2,4.1c-.2.2-1.7.7-1.8,1.1-.2.4.3-.6.5,0c0-.1-.5-.2-.6-.3-1.8-1.4-4.2-2.4-6.2-3.6q-4-2.3-7.9-4.6-1.7-1-3.5-2c-.2-.1-.6-.5-.9-.5-.8-.1.5-.5.1.4.2-.4,0-1.5,0-2q0-2.1,0-4.2q0-8.1,0-16.2c0-1-1.5-1-1.5,0Z" fill="#fff"/></g></g><g><g><path d="M198.4,341.5q0,7.6,0,15.1c0,.2.2.5.4.6q5.9,3.4,11.7,6.8c.4.2.9.6,1.4.8.6.1.9-.2,1.5-.5q3.3-1.9,6.6-3.8q2.8-1.7,5.6-3.3c.3-.1.4-.4.4-.6q0-7.5,0-15.1c0-.2-.1-.5-.4-.6q-5.8-3.4-11.6-6.8c-.4-.2-.9-.6-1.4-.7-.6-.2-1,.1-1.5.4q-3.3,1.9-6.7,3.8-2.8,1.7-5.6,3.3c-.8.5-.1,1.8.8,1.3q6.5-3.8,13-7.5-.4,0-.7,0q6.5,3.7,13,7.5-.2-.3-.4-.7q0,7.6,0,15.1.2-.3.4-.7-6.5,3.8-13,7.6.3,0,.7,0-6.5-3.8-13-7.6.2.4.3.7q0-7.5,0-15.1c0-.9-1.5-.9-1.5,0Z" fill="#fff"/></g></g><g><g><path d="M257.4,315.8c-.6,2.8-.2,6-.2,8.8q.1,4,.2,8c0,.4.3.7.7.7q17.7,0,35.3,0q2.5,0,5,0c1,0,1-1.5,0-1.5q-17.6,0-35.3,0-2.5,0-5,0q.4.4.8.8-.1-3.8-.2-7.6c0-2.8-.4-6.1.1-8.8.2-1-1.2-1.4-1.4-.4Z" fill="#fff"/></g></g><g><g><path d="M225.9,348.9c5.6,0,11.2.1,16.8,0c1.4,0,2.2-1.4,3.2-2.4q3.7-3.9,7.4-7.8q2.7-2.8,5.3-5.6c.7-.7-.4-1.7-1-1q-5.8,6-11.6,12.1-1.3,1.4-2.6,2.7c-.1.1-.6.6-.6.7c0-.1.7-.1.2-.2-1-.3-2.3,0-3.3,0q-2.6,0-5.3,0-4.2,0-8.5,0c-.9,0-.9,1.5,0,1.5Z" fill="#fff"/></g></g></g><g opacity="0.4"><g><g><path d="M305.2,434.2h-143.5v-54.4h143.5v54.4Z" fill="none" stroke="#fff" stroke-width="0.6" stroke-miterlimit="10"/></g><g><g><path d="M167.1,387.5h132.7" fill="none" stroke="#fff" stroke-width="0.6" stroke-miterlimit="10"/></g><g><path d="M167.1,395.4h132.7" fill="none" stroke="#fff" stroke-width="0.6" stroke-miterlimit="10"/></g><g><path d="M167.1,403.3h132.7" fill="none" stroke="#fff" stroke-width="0.6" stroke-miterlimit="10"/></g><g><path d="M167.1,411.2h132.7" fill="none" stroke="#fff" stroke-width="0.6" stroke-miterlimit="10"/></g><g><path d="M167.1,419.1h132.7" fill="none" stroke="#fff" stroke-width="0.6" stroke-miterlimit="10"/></g><g><path d="M167.1,427h132.7" fill="none" stroke="#fff" stroke-width="0.6" stroke-miterlimit="10"/></g></g></g></g><g><g><path d="M606.5,401.5h-87.8v-110.1h87.8v110.1Z" fill="#d3f470"/></g><g><path d="M524.5,324.8h75.9" fill="none" stroke="#fff" stroke-miterlimit="10"/></g><g><path d="M524.5,328.9h75.9" fill="none" stroke="#fff" stroke-miterlimit="10"/></g><g><path d="M524.5,332.9h75.9" fill="none" stroke="#fff" stroke-miterlimit="10"/></g><g><path d="M524.5,337h75.9" fill="none" stroke="#fff" stroke-miterlimit="10"/></g><g><path d="M524.5,341.1h75.9" fill="none" stroke="#fff" stroke-miterlimit="10"/></g><g><path d="M524.5,345.2h75.9" fill="none" stroke="#fff" stroke-miterlimit="10"/></g><g><path d="M524.5,349.3h75.9" fill="none" stroke="#fff" stroke-miterlimit="10"/></g><g><path d="M524.5,353.4h75.9" fill="none" stroke="#fff" stroke-miterlimit="10"/></g><g><path d="M524.5,357.4h75.9" fill="none" stroke="#fff" stroke-miterlimit="10"/></g><g><path d="M602.1,318.3h-77.6v-20.1h77.6v20.1Z" fill="#fbfffa"/><g><path d="M602.1,302.9h-78.1v-4.8h78.1v4.8Z" fill="#abe14b"/></g></g><path d="M524.7,361.1h41.8" fill="none" stroke="#fff" stroke-miterlimit="10"/><path d="M524.7,364.9h41.8" fill="none" stroke="#fff" stroke-miterlimit="10"/><path d="M524.7,368.6h41.8" fill="none" stroke="#fff" stroke-miterlimit="10"/><path d="M524.7,372.3h41.8" fill="none" stroke="#fff" stroke-miterlimit="10"/><path d="M524.7,376h41.8" fill="none" stroke="#fff" stroke-miterlimit="10"/><path d="M524.7,379.7h41.8" fill="none" stroke="#fff" stroke-miterlimit="10"/><path d="M524.7,383.4h41.8" fill="none" stroke="#fff" stroke-miterlimit="10"/><path d="M524.7,387.1h41.8" fill="none" stroke="#fff" stroke-miterlimit="10"/><path d="M524.7,390.8h41.8" fill="none" stroke="#fff" stroke-miterlimit="10"/><path d="M524.7,394.5h41.8" fill="none" stroke="#fff" stroke-miterlimit="10"/><path d="M515.4,313.9l-6.4-5.4l22.1-26.6l6.4,5.4-22.1,26.6Z" fill="#ffb200"/><g><g><g><path d="M587.4,396.3c-3.2,0-5.7-7.1-5.7-16.2s2.5-16.3,5.7-16.3s5.7,7.2,5.7,16.3-2.5,16.2-5.7,16.2Zm0-31.9c-2.8,0-5.2,7.1-5.2,15.7c0,8.5,2.4,15.7,5.2,15.7s5.1-7.2,5.1-15.7c0-8.6-2.3-15.7-5.1-15.7Z" fill="#fbfffa" fill-rule="evenodd"/></g><g><path d="M597.9,389.9q-1.3,0-3.1-.4c-3.1-.8-6.8-2.5-10.4-4.8-7.7-4.9-12.4-10.8-10.7-13.5s9.1-1,16.8,3.9c3.6,2.3,6.7,4.9,8.7,7.5c2.1,2.5,2.8,4.7,1.9,6-.5.9-1.6,1.3-3.2,1.3Zm-21-19.5c-1.3,0-2.3.4-2.7,1.1-1.5,2.3,3.3,8.2,10.5,12.7c3.5,2.3,7.2,4,10.3,4.7c2.9.8,5,.5,5.7-.6s0-3.1-1.9-5.4c-2-2.5-5-5.1-8.6-7.4-5.1-3.2-10.2-5.1-13.3-5.1Z" fill="#fbfffa" fill-rule="evenodd"/></g><g><path d="M577,389.4c-1.9,0-3.2-.5-3.8-1.5-.7-1.4.1-3.5,2.4-6c2.2-2.3,5.5-4.7,9.3-6.8c3.8-2,7.6-3.4,10.8-3.9c3.2-.6,5.4-.1,6.2,1.3c1.5,2.8-3.6,8.4-11.6,12.7-3.8,2-7.7,3.4-10.8,4q-1.4.2-2.5.2Zm21.1-17.9q-1.1,0-2.4.2c-3.1.5-6.8,1.9-10.6,3.9-3.7,2-7,4.4-9.1,6.7-2.1,2.2-2.9,4.1-2.3,5.3s2.7,1.5,5.7,1c3.1-.5,6.9-1.9,10.6-3.9c7.5-4,12.7-9.5,11.4-12-.4-.8-1.6-1.2-3.3-1.2Z" fill="#fbfffa" fill-rule="evenodd"/></g></g><g><g><path d="M590.7,380.1c0,1.7-1.3,3-3,3s-3-1.3-3-3s1.3-3,3-3s3,1.3,3,3Z" fill="#fbfffa"/></g><g><path d="M587.7,384.1c-2.2,0-4-1.8-4-4s1.8-4,4-4s4,1.8,4,4-1.8,4-4,4Zm0-6c-1.1,0-2,.9-2,2s.9,2,2,2s2-.9,2-2-.9-2-2-2Z" fill="#fbfffa" fill-rule="evenodd"/></g></g></g><path d="M615.9,309.6l-6.5,5.2L588,287.6l6.6-5.2l21.3,27.2Z" fill="#ffb200"/></g></g></g><g><g><path d="M1088.6,0v79.7" fill="none" stroke="#606060" stroke-width="2" stroke-miterlimit="10"/><path d="M1047.6,93.7c8,14.2,23.2,23.7,40.6,23.7s32.5-9.5,40.5-23.7h-81.1Z" fill="#ffb200"/><path d="M1153.2,94.8h-130.7v-38.8h130.7v38.8Z" fill="#fff"/></g><g><path d="M403.1,0v79.7" fill="none" stroke="#606060" stroke-width="2" stroke-miterlimit="10"/><path d="M362.1,93.7c8.1,14.2,23.2,23.7,40.6,23.7s32.6-9.5,40.6-23.7h-81.2Z" fill="#ffb200"/><path d="M467.7,94.8h-130.7v-38.8h130.7v38.8Z" fill="#fff"/></g></g><g><path d="M1288.5,394.1h-263.1v-194.7h263.1v194.7Z" fill="#fff"/><g><g><path d="M1118,247.4h-1c-1.4,0-2.5-1.1-2.5-2.5v-4.1h-15.9v4.1c0,1.4-1.1,2.5-2.4,2.5h-.7c-2.4,0-4.3,1.9-4.3,4.2v32.6c0,1.7,1.4,3,3.1,3h24.9c1.7,0,3.1-1.3,3.1-3v-32.6c0-2.3-1.9-4.2-4.3-4.2Z" fill="#c5001c"/><g><path d="M1118.9,283.8h-24.1v-32.6h24.1v32.6Z" fill="#fff"/><g><path d="M1118.9,256.2h-24.1v-5.1h24.1v5.1Z" fill="#ffb400"/></g></g><path d="M1114.6,241.5h-15.6c-1,0-1.9-.9-1.9-1.9v-2.5c0-1,.9-1.8,1.9-1.8h15.6c1,0,1.8.8,1.8,1.8v2.5c0,1-.8,1.9-1.8,1.9Z" fill="#221a17"/></g><g><g><path d="M1047,272.6c0,4.6,1.5,8.9,3.9,12.3h29.7c2.5-3.4,3.9-7.7,3.9-12.3c0-9.1-5.6-16.9-13.3-19.4c7.5-2.6,12.9-10.2,12.9-19.2c0-3.8-1-7.3-2.7-10.4h-32.1c-1.7,3.1-2.7,6.6-2.7,10.4c0,9.2,5.6,16.9,13.3,19.4-7.5,2.6-12.9,10.2-12.9,19.2Z" opacity="0.9" fill="#ebf1fd"/><path d="M1052.2,247.1c2.8,3.9,7.7,6.5,13.2,6.5s10.4-2.6,13.2-6.5h-26.4Z" fill="#d39009"/><g opacity="0.5"><g><path d="M1051,226.1c-2,5.2-2.3,11.8.4,16.8c1.2,2.3,3.1,4.1,5.3,5.5.4.3.9-.4.4-.7-4.7-3-6.9-8.1-6.8-13.6.1-2.6.5-5.3,1.5-7.8.2-.5-.6-.7-.8-.2Z" fill="#ebf1fd"/></g></g><path d="M1052.4,284.9c0,0-3.9-3.2-4.2-13.8c7.2,0,15.7-2.5,17.3-5.1c3.2,4,15.3,6,17.7,4.4c0,3.9-.7,10-3.7,14.6-8.3-.1-27.1-.1-27.1-.1Z" fill="#d39009"/><g opacity="0.5"><g><path d="M1059.3,257.1c-8.4,3.4-11,14.1-7.7,21.9.6,1.5,1.3,3,2.4,4.1.3.4.9-.2.6-.6-6.4-7.2-4.1-21,4.9-24.6.5-.2.3-1-.2-.8Z" fill="#ebf1fd"/></g></g></g><path d="M1085.9,225.7h-41.2v-5.4h41.2v5.4Z" fill="#a09c9c"/><path d="M1085.5,287.5h-40.1v-5.2h40.1v5.2Z" fill="#a09c9c"/></g><g><path d="M1282.4,292.3h-251.3v-5.2h251.3v5.2Z" fill="#434b8a"/></g><g><g><g><path d="M1267.3,286.9h-21.6v-69.1h21.6v69.1Z" fill="#d10c00"/></g><g><path d="M1267.3,286.8h-21.6v-23.4h21.6v23.4Z" fill="#42498d"/></g><g><path d="M1256.6,257.6c-4,0-7.3-3.3-7.3-7.3v-15.9c0-4,3.3-7.2,7.3-7.2s7.2,3.2,7.2,7.2v15.9c0,4-3.2,7.3-7.2,7.3Z" fill="#ffb400"/></g><g><g><path d="M1245,223.5q10.3,0,20.6,0q1.4,0,2.9,0c.7,0,.7-1,0-1q-10.3,0-20.6,0-1.5,0-2.9,0c-.7,0-.7,1,0,1Z" fill="#ffb200"/></g></g><g><g><path d="M1244.5,261.7q10.3,0,20.6,0q1.4,0,2.9,0c.7,0,.7-1.1,0-1.1q-10.3,0-20.6,0-1.5,0-2.9,0c-.8,0-.8,1.1,0,1.1Z" fill="#ffb200"/></g></g><path d="M1256.8,258.6h-.4c-4.4,0-8-3.6-8-8v-16.5c0-4.3,3.6-7.9,8-7.9h.4c4.4,0,8,3.6,8,7.9v16.5c0,4.4-3.6,8-8,8Z" fill="none" stroke="#ffb200" stroke-width="0.4" stroke-miterlimit="10"/><g><path d="M1267.3,266.6v-3.3h-21.6v3.3h21.6Z" fill="#1e2144"/><path d="M1267.3,268.7v-1.3h-21.7v1.3h21.7Z" fill="#1e2144"/></g><path d="M1256.3,263.3v23.5h11v-23.5h-11Z" opacity="0.3" fill="#1e2144"/></g><g><g><path d="M1242.3,286.9h-21.6v-69.1h21.6v69.1Z" fill="#d10c00"/></g><g><path d="M1242.3,286.8h-21.6v-23.4h21.6v23.4Z" fill="#42498d"/></g><g><path d="M1231.6,257.6c-4,0-7.3-3.3-7.3-7.3v-15.9c0-4,3.3-7.2,7.3-7.2s7.2,3.2,7.2,7.2v15.9c0,4-3.2,7.3-7.2,7.3Z" fill="#ffb400"/></g><g><g><path d="M1220,223.5q10.3,0,20.6,0q1.4,0,2.9,0c.7,0,.7-1,0-1q-10.3,0-20.6,0-1.5,0-2.9,0c-.7,0-.7,1,0,1Z" fill="#ffb200"/></g></g><g><g><path d="M1219.5,261.7q10.3,0,20.6,0q1.4,0,2.9,0c.7,0,.7-1.1,0-1.1q-10.3,0-20.6,0-1.5,0-2.9,0c-.8,0-.8,1.1,0,1.1Z" fill="#ffb200"/></g></g><path d="M1231.8,258.6h-.4c-4.4,0-8-3.6-8-8v-16.5c0-4.3,3.6-7.9,8-7.9h.4c4.4,0,8,3.6,8,7.9v16.5c0,4.4-3.6,8-8,8Z" fill="none" stroke="#ffb200" stroke-width="0.4" stroke-miterlimit="10"/><g><path d="M1242.3,266.6v-3.3h-21.6v3.3h21.6Z" fill="#1e2144"/><path d="M1242.3,268.7v-1.3h-21.7v1.3h21.7Z" fill="#1e2144"/></g><path d="M1231.3,263.3v23.5h11v-23.5h-11Z" opacity="0.3" fill="#1e2144"/></g><g><g><path d="M1217.4,286.9h-21.6v-69.1h21.6v69.1Z" fill="#d10c00"/></g><g><path d="M1217.4,286.8h-21.6v-23.4h21.6v23.4Z" fill="#42498d"/></g><g><path d="M1206.7,257.6c-4,0-7.3-3.3-7.3-7.3v-15.9c0-4,3.3-7.2,7.3-7.2s7.2,3.2,7.2,7.2v15.9c0,4-3.2,7.3-7.2,7.3Z" fill="#ffb400"/></g><g><g><path d="M1195.1,223.5q10.3,0,20.6,0q1.4,0,2.9,0c.7,0,.7-1,0-1q-10.3,0-20.6,0-1.5,0-2.9,0c-.7,0-.7,1,0,1Z" fill="#ffb200"/></g></g><g><g><path d="M1194.5,261.7q10.3,0,20.6,0q1.5,0,3,0c.7,0,.7-1.1,0-1.1q-10.3,0-20.6,0-1.5,0-3,0c-.7,0-.7,1.1,0,1.1Z" fill="#ffb200"/></g></g><path d="M1206.9,258.6h-.5c-4.3,0-7.9-3.6-7.9-8v-16.5c0-4.3,3.6-7.9,7.9-7.9h.5c4.4,0,8,3.6,8,7.9v16.5c0,4.4-3.6,8-8,8Z" fill="none" stroke="#ffb200" stroke-width="0.4" stroke-miterlimit="10"/><g><path d="M1217.4,266.6v-3.3h-21.7v3.3h21.7Z" fill="#1e2144"/><path d="M1217.4,268.7v-1.3h-21.7v1.3h21.7Z" fill="#1e2144"/></g><path d="M1206.4,263.3v23.5h11v-23.5h-11Z" opacity="0.3" fill="#1e2144"/></g></g><g><path d="M1146.1,247.3h-.8c-1,0-1.9-1.1-1.9-2.5v-4.1h-12.4v4.1c0,1.4-.9,2.5-1.9,2.5h-.5c-1.9,0-3.3,1.9-3.3,4.2v32.6c0,1.7,1,3,2.3,3h19.5c1.3,0,2.3-1.3,2.3-3v-32.6c0-2.3-1.4-4.2-3.3-4.2Z" fill="#c5001c"/><g><path d="M1146.8,283.7h-18.8v-32.6h18.8v32.6Z" fill="#fff"/><g><path d="M1146.8,256.1h-18.8v-5.1h18.8v5.1Z" fill="#ffb400"/></g></g><path d="M1143.3,241.4h-11.8c-.9,0-1.6-.7-1.6-1.6v-3c0-.9.7-1.6,1.6-1.6h11.8c.9,0,1.6.7,1.6,1.6v3c0,.9-.7,1.6-1.6,1.6Z" fill="#221a17"/></g><g><path d="M1189,220.1c1.1,0,1.9-.9,1.9-1.9s-.8-1.9-1.9-1.9h-33.3c-1.1,0-1.9.9-1.9,1.9s.8,1.9,1.9,1.9h4.5v59.6l-4.1,7.8h33l-3.7-7v-60.4h3.6Z" fill="#d4e4fb"/><path d="M1190.5,219.7h-36.5v-4h36.5v4Z" fill="#a09c9c"/><g><path d="M1166.5,277.7h-3.4v-57.9h3.4v57.9Z" fill="#98d1fc"/></g></g></g><g><g><path d="M1083.6,321h-43.5c-1.2,0-2.2,1-2.2,2.2v57.6c0,1.2,1,2.2,2.2,2.2h43.5c1.2,0,2.2-1,2.2-2.2v-57.6c0-1.2-1-2.2-2.2-2.2Z" fill="#d4e4fb"/><g><path d="M1048.9,383h-6.1v-60.4h6.1v60.4Z" fill="#98d1fc"/></g><path d="M1087.7,323.1h-52.6v-3.6h52.6v3.6Z" fill="#a09c9c"/></g><g><path d="M1282.6,387.7h-251.2v-5.1h251.2v5.1Z" fill="#434b8a"/></g><g><path d="M1197.6,382.6h-102.1v-59.2h102.1v59.2Z" fill="#c5001c"/><g><path d="M1150.2,362.1h-5.4v-22.5h5.4v22.5Z" fill="#fff"/><path d="M1158.7,347.9v5.4h-22.5v-5.4h22.5Z" fill="#fff"/></g><path d="M1194.3,380h-94.7v-52.8h94.7v52.8Z" fill="none" stroke="#fff" stroke-miterlimit="10"/><path d="M1099.6,372.9h94.4" fill="none" stroke="#fff" stroke-miterlimit="10"/></g><g><g><path d="M1234.5,374.8h-21.7v-44.2h21.7v44.2Z" fill="#d4e4fb"/><path d="M1236.1,331h-25c-.6,0-1-.4-1-1s.4-1,1-1h25c.6,0,1,.4,1,1s-.4,1-1,1Z" fill="#b7d4f7"/><path d="M1215.7,373.7h-1.3v-41.2h1.3v41.2Z" fill="#b7d4f7"/></g><g><path d="M1265.4,374.5h-21.7v-44.2h21.7v44.2Z" fill="#d4e4fb"/><path d="M1246.6,373.1h-1.2v-41.2h1.2v41.2Z" fill="#b7d4f7"/><path d="M1266.8,330.9h-25.1c-.5,0-1-.5-1-1c0-.6.5-1,1-1h25.1c.5,0,1,.4,1,1c0,.5-.5,1-1,1Z" fill="#b7d4f7"/></g><g><g><path d="M1273.8,331v51.6h-2.1v-6h-63.8v5.8h-2.1v-51.6h2.1v3.3h63.8v-3.1h2.1Zm-2.2,43v-36.8h-63.7v36.8h63.7Z" fill="#1e2144" fill-rule="evenodd"/></g></g></g></g><path d="M1282.7,387.7h-251.6v-182.5h251.6v182.5Z" opacity="0.5" fill="#d4e4fb"/></g><g><g><path d="M1315.9,605.2c1,1.2,15-4.8,12.3-23.8-.7-4.8-2-10.5-4-16.8-8,15.3-21.1,25.1-8.3,40.6Z" fill="#237505"/><path d="M1357.4,733.7h-2.5v-76.1-176.2h2.5v252.3Z" fill="#513402"/><path d="M1356.4,646.9l-58.2-63.4l2.6,8.2l55.1,59.7.5-4.5Z" fill="#513402"/><path d="M1356.9,565.7l57.7-55.7-.5-3.6-57.2,55.9v3.4Z" fill="#513402"/><path d="M1356.4,548.6l-47.2-55.7l1,4.3l47.2,58.2-1-6.8Z" fill="#513402"/><path d="M1356.3,487c0,0,30.4-29.8-2-60.4-7.4,24.6-17.8,40.3,2,60.4Z" fill="#2fa308"/><path d="M1408.5,512.9c.4,1.5,15.7,1.2,20.4-17.5c1.2-4.7,2.1-10.6,2.7-17.2-13.3,11.2-29.3,15.4-23.1,34.7Z" fill="#2fa308"/><path d="M1392.8,529.1c1.2,1,13.6-7.8,7-25.8-1.7-4.5-4.2-9.8-7.4-15.6-4.7,16.6-15.4,29,.4,41.4Z" fill="#237505"/><path d="M1395.6,599.2c1.4.7,12.1-10,2.6-26.6-2.4-4.2-5.8-9-9.9-14.1-1.8,17.1-10.3,31.1,7.3,40.7Z" fill="#237505"/><path d="M1390.1,608.3c-.9,1.3,8.8,13,26.3,5c4.4-2.1,9.4-5,14.9-8.7-16.9-3.3-30.1-13-41.2,3.7Z" fill="#2e7f0d"/><path d="M1409,577.9c-1-1.5-52.1,82.7-52.1,82.7l-1,10.3l52.6-88.4.5-4.6Z" fill="#513402"/><path d="M1406.5,580.6c.5,1.8,19.5,1.5,25.3-21.7c1.5-5.8,2.7-13.1,3.3-21.3-16.4,13.9-36.2,19.1-28.6,43Z" fill="#2fa308"/><path d="M1387.4,612.4c.9-.3.7-10.1-11.4-13-3-.7-6.8-1.3-11-1.6c7.2,8.4,10,18.7,22.4,14.6Z" fill="#237505"/><path d="M1324.4,515.1c.7-.7-4.1-9.3-16.1-6.3-3,.7-6.6,2-10.5,3.7c10.3,4.1,17.5,11.9,26.6,2.6Z" fill="#237505"/><path d="M1314.5,501.6c0,0-2.3-27.7-31.1-24.2c9.2,14,12.7,25.7,31.1,24.2Z" fill="#2fa308"/><path d="M1333.1,524.3c.6.8,9.8-2.6,8.6-15-.3-3.1-1-6.8-2-10.9-5.7,9.6-14.4,15.5-6.6,25.9Z" fill="#237505"/><path d="M1302.9,591.8c1.9.5,11.3-16-5.7-32.8-4.3-4.3-10-9-16.7-13.7c3.6,21.2-2,40.9,22.4,46.5Z" fill="#2fa308"/><path d="M1326.7,617.7c.6-.7-4.7-8.3-15.8-4.3-2.7,1-6,2.5-9.5,4.5c10.1,2.9,17.7,9.5,25.3-.2Z" fill="#237505"/></g><g><g opacity="0.2"><path d="M1482.7,831.8c0,5-37.9,9.1-84.7,9.1-46.9,0-84.8-4.1-84.8-9.1s37.9-9.1,84.8-9.1c46.8,0,84.7,4.1,84.7,9.1Z" fill="#606060"/></g><path d="M1407.7,832.2h-93.7L1289.5,677h139.3l-21.1,155.2Z" fill="#1e2144"/><path d="M1419.3,677l-21.1,155.2h9.7L1429,677h-9.7Z" opacity="0.1" fill="#fff"/><g opacity="0.4"><path d="M1307,679.7h120.9l.4-2.8h-138.6l24.4,155.3h16.9l-24-152.5Z" fill="#434b8a"/></g></g></g><g><g><path d="M882.4,206.7c0,29.9-24.3,54.1-54.2,54.1s-54.1-24.2-54.1-54.1s24.2-54.2,54.1-54.2s54.2,24.3,54.2,54.2Z" opacity="0.3" fill="#8c8d88"/><path d="M870.8,206c0,23.3-18.9,42.1-42.1,42.1s-42.1-18.8-42.1-42.1c0-23.2,18.9-42,42.1-42s42.1,18.8,42.1,42Z" opacity="0.3" fill="#8c8d88"/><path d="M867.6,206c0,21.2-17.2,38.4-38.4,38.4s-38.4-17.2-38.4-38.4s17.2-38.4,38.4-38.4s38.4,17.2,38.4,38.4Z" fill="#fff"/></g><path d="M863.3,206.4c0,18.8-15.2,34-34,34s-34-15.2-34-34s15.2-34.1,34-34.1s34,15.3,34,34.1Z" fill="none" stroke="#8c8d88" stroke-miterlimit="10"/><path d="M857.3,206.7c0,15.2-12.3,27.5-27.5,27.5-15.1,0-27.4-12.3-27.4-27.5c0-15.1,12.3-27.4,27.4-27.4c15.2,0,27.5,12.3,27.5,27.4Z" fill="none" stroke="#8c8d88" stroke-miterlimit="10"/><path d="M845.3,206.7c0,8.6-7,15.5-15.5,15.5-8.6,0-15.5-6.9-15.5-15.5c0-8.5,6.9-15.5,15.5-15.5c8.5,0,15.5,7,15.5,15.5Z" fill="none" stroke="#8c8d88" stroke-miterlimit="10"/><path d="M835.1,210.6c2.1-3.3,1.1-7.6-2.1-9.7-3.3-2.1-7.6-1.1-9.7,2.1-2.1,3.3-1.2,7.6,2.1,9.7s7.6,1.1,9.7-2.1Z" fill="#8c8d88"/><path d="M851.3,206.7c0,11.8-9.5,21.3-21.2,21.3-11.8,0-21.3-9.5-21.3-21.3c0-11.7,9.5-21.2,21.3-21.2c11.7,0,21.2,9.5,21.2,21.2Z" fill="none" stroke="#8c8d88" stroke-miterlimit="10"/></g><g><g><path d="M895.3,460.8c0,0-4.7,9-2.4,12.4c2.2,3.4,6.6.6,5.2-4.5-1.3-5.1-2.8-7.9-2.8-7.9Z" fill="#efaa07"/></g><g><g><g><g><path d="M1018.8,573.1v-61.4h-22v60.9c-17.7,4.5-30.8,20.5-30.8,39.6c0,22.5,18.3,40.8,40.9,40.8c22.5,0,40.8-18.3,40.8-40.8c0-18.4-12.2-34-28.9-39.1Z" opacity="0.8" fill="#fff"/><g><path d="M1043.5,610c0,0-1.8-3.7-10.1-4.5-3.1-.3-9.1,2.8-11.8,1.6-8.6-4-10.6-1.5-15.8.8-5.1,2.3-9.7,1.2-18.9-1.4-5.3-1.5-8.7-.9-13.2,1.8-.8.5-3.3,1.7-3.3,1.7q-.1,1.6-.1,3.2c0,20.2,16.4,36.7,36.7,36.7s36.7-16.5,36.7-36.7q0-1.6-.2-3.2Z" fill="#fd0003"/></g><path d="M1021.1,514.4h-26.9v-3.8h26.9v3.8Z" fill="#fff"/><g opacity="0.5"><g><path d="M974.1,602.6c2.7-13.3,14.7-22.9,27.7-25.5.6-.1,1-.7,1-1.3q.1-24.1.1-48.3q0-3.4,0-6.8c0-1.7-2.7-1.7-2.7,0q0,24.2-.1,48.3q0,3.4,0,6.8.5-.6,1-1.3c-13.9,2.7-26.8,13.2-29.6,27.4-.3,1.7,2.3,2.4,2.6.7Z" fill="#98d1fc"/></g></g><g id="eSbKrz87luj365_to" transform="translate(1006.862549,597.200012)"><g transform="translate(-1006.862549,-597.200012)"><g><path d="M1006.9,599.9c3.4,0,3.4-5.4,0-5.4-3.5,0-3.5,5.4,0,5.4Z" fill="#fd0003"/></g></g></g><g><g><path d="M1027,590.8c3.5,0,3.5-5.3,0-5.3-3.4,0-3.4,5.3,0,5.3Z" fill="#fd0003"/></g></g><g><g><path d="M990.3,592.2c3.5,0,3.5-5.4,0-5.4-3.4,0-3.4,5.4,0,5.4Z" fill="#fd0003"/></g></g><g><g><path d="M982.8,601.3c1.8,0,1.8-2.7,0-2.7-1.7,0-1.7,2.7,0,2.7Z" fill="#fd0003"/></g></g><g><g><path d="M1033.8,602.3c1.7,0,1.7-2.7,0-2.7-1.8,0-1.8,2.7,0,2.7Z" fill="#fd0003"/></g></g><g><g><path d="M1008.2,585.4c1.8,0,1.8-2.7,0-2.7-1.7,0-1.7,2.7,0,2.7Z" fill="#fd0003"/></g></g><g><g><path d="M995.9,604.4q0,0,0,.1q0,.2.1.3q0,.1.1.2t.2.1q.2.1.3.1t.2,0q.2-.1.3-.2q0-.1.1-.1.1-.2.1-.4q0-.1,0-.1q0-.2-.1-.3q0-.1-.1-.2t-.2-.2q-.2,0-.3,0t-.2,0q-.1.1-.3.2q0,.1-.1.1-.1.2-.1.4Z" fill="#fd0003"/></g></g><g><g><path d="M1016.9,600.3c.9,0,.9-1.4,0-1.4-.8,0-.8,1.4,0,1.4Z" fill="#fd0003"/></g></g><g><path d="M1043.5,610c0,0-1.2-2.5-6.2-3.9c1.3,1,1.7,1.9,1.7,1.9q.2,1.5.2,3.1c0,20.3-16.4,36.7-36.7,36.7-4.6,0-9-.9-13.1-2.4c5.2,2.8,11.2,4.5,17.6,4.5c20.2,0,36.7-16.5,36.7-36.7q0-1.6-.2-3.2Z" fill="#b20818"/></g><path d="M1043.5,610c0,0-1.8-3.7-10.1-4.5-3.1-.3-9.1,2.8-11.8,1.6-8.6-4-10.6-1.5-15.8.8-5.1,2.3-9.7,1.2-18.9-1.4-5.3-1.5-8.7-.9-13.2,1.8-.8.5-3.3,1.7-3.3,1.7q-.1,1.2-.1,2.4q0,0,.1-.1.2,0,.4,0c.3-.2,2.5-1.2,3.2-1.7c4.5-2.7,7.9-3.3,13.2-1.8c9.2,2.6,13.8,3.7,18.9,1.4c5.2-2.3,7.2-4.8,15.8-.8c2.7,1.2,8.7-1.9,11.8-1.7c6.8.7,9.2,3.3,9.9,4.3q0-1-.1-2Z" opacity="0.4" fill="#fff"/></g><g><g><g><path d="M1082.7,478.3c0,11.7-9.5,21.1-21.2,21.1-11.8,0-21.3-9.4-21.3-21.1c0-11.6,9.5-21.1,21.3-21.1c11.7,0,21.2,9.5,21.2,21.1Z" fill="#1e2144"/></g><path d="M1080.2,478.6c0,10.1-8.3,18.4-18.5,18.4s-18.5-8.3-18.5-18.4s8.3-18.3,18.5-18.3s18.5,8.2,18.5,18.3Z" fill="#fff"/><path d="M1078.8,478.5c0,9.2-7.6,16.8-16.9,16.8s-16.9-7.6-16.9-16.8c0-9.3,7.6-16.8,16.9-16.8s16.9,7.5,16.9,16.8Z" opacity="0.4" fill="#99989d"/><path d="M1076.9,478.6c0,8.2-6.6,14.9-14.9,14.9-8.2,0-14.9-6.7-14.9-14.9s6.7-14.8,14.9-14.8c8.3,0,14.9,6.6,14.9,14.8Z" fill="#fff"/><g><g><path d="M1059.2,466.4l3.9,11.6h11.7c0,0,.2-6.6-5.6-10-5.6-3.3-10-1.6-10-1.6Z" fill="#e50000"/></g><path d="M1062.3,479.4l-4.8-10.7-1,.5l4.5,10.2h-11.5c.6,6.5,6,11.6,12.7,11.6s12.2-5.1,12.8-11.6h-12.7Z" fill="#1e2144"/></g></g><g><path d="M1063.6,678.2h-6v-180.1h6v180.1Z" fill="#1e2144"/><path d="M1066.4,523.8h-47.4v-2.9h47.4v2.9Z" fill="#1e2144"/><path d="M1065.8,684.4h-116.9v-6.6h116.9v6.6Z" fill="#1e2144"/><path d="M1023.7,524.5h-30.8v-4.6h30.8v4.6Z" fill="#606060"/></g></g></g><g><g opacity="0.6"><path d="M361.3,677.5h-33.9v-144h33.9v144Z" fill="#fbfffa"/></g><path d="M361.3,673.2h-32.6l-19,5.5v5.9h70.2v-5.9l-18.6-5.5Z" fill="#fbfffa"/><g><g><path d="M359,672.8h-29.3v-40.8h29.3v40.8Z" fill="#5b04da"/></g><g><path d="M345.7,632h-16v40.8h16v-40.8Z" fill="#4e00b0"/></g></g><path d="M361.9,534.5h-36.1c-1,0-1.8-.8-1.8-1.8s.8-1.8,1.8-1.8h36.1c1,0,1.9.8,1.9,1.8s-.9,1.8-1.9,1.8Z" fill="#fbfffa"/><g><g><g><g><path d="M329.5,546.5q6,0,11.9,0c.9,0,.9-1.3,0-1.3q-5.9,0-11.9,0c-.9,0-.9,1.3,0,1.3Z" fill="#4a4b54"/></g></g><g><g><path d="M329.8,564.8q6,0,12,0c.8,0,.8-1.3,0-1.3q-6,0-12,0c-.8,0-.8,1.3,0,1.3Z" fill="#4a4b54"/></g></g><g><g><path d="M329.7,550.1q3.3,0,6.5,0c.7,0,.7-1,0-1q-3.2,0-6.5,0c-.6,0-.6,1,0,1Z" fill="#4a4b54"/></g></g><g><g><path d="M329.8,553.6q3.2,0,6.5,0c.6,0,.6-1,0-1q-3.3,0-6.5,0c-.7,0-.7,1,0,1Z" fill="#4a4b54"/></g></g><g><g><path d="M329.9,557.2q3.2,0,6.5,0c.6,0,.6-1,0-1q-3.3,0-6.5,0c-.7,0-.7,1,0,1Z" fill="#4a4b54"/></g></g><g><g><path d="M329.9,560.7q3.3,0,6.5,0c.7,0,.7-1,0-1q-3.2,0-6.5,0c-.6,0-.6,1,0,1Z" fill="#4a4b54"/></g></g></g><g><g><g><path d="M330.2,568.5q3.3,0,6.5,0c.6,0,.6-1,0-1q-3.2,0-6.5,0c-.6,0-.6,1,0,1Z" fill="#4a4b54"/></g></g><g><g><path d="M330.2,572q3.3,0,6.5,0c.7,0,.7-1,0-1q-3.2,0-6.5,0c-.6,0-.6,1,0,1Z" fill="#4a4b54"/></g></g><g><g><path d="M330.3,575.6q3.3,0,6.5,0c.7,0,.7-1,0-1q-3.2,0-6.5,0c-.6,0-.6,1,0,1Z" fill="#4a4b54"/></g></g><g><g><path d="M330.4,579.1q3.3,0,6.5,0c.7,0,.7-.9,0-.9q-3.2,0-6.5,0c-.6,0-.6.9,0,.9Z" fill="#4a4b54"/></g></g></g><g><g><g><path d="M329.9,584.1q6,0,11.9,0c.9,0,.9-1.3,0-1.3q-5.9,0-11.9,0c-.8,0-.9,1.3,0,1.3Z" fill="#4a4b54"/></g></g><g><g><path d="M330.2,602.4q6,0,12,0c.8,0,.8-1.3,0-1.3q-6,0-12,0c-.8,0-.8,1.3,0,1.3Z" fill="#4a4b54"/></g></g><g><g><path d="M330.1,587.7q3.3,0,6.5,0c.7,0,.7-1,0-1q-3.2,0-6.5,0c-.6,0-.6,1,0,1Z" fill="#4a4b54"/></g></g><g><g><path d="M330.2,591.2q3.2,0,6.5,0c.6,0,.6-1,0-1q-3.3,0-6.5,0c-.7,0-.7,1,0,1Z" fill="#4a4b54"/></g></g><g><g><path d="M330.3,594.7q3.2,0,6.5,0c.6,0,.6-.9,0-.9q-3.3,0-6.5,0c-.7,0-.7.9,0,.9Z" fill="#4a4b54"/></g></g><g><g><path d="M330.4,598.3q3.2,0,6.5,0c.6,0,.6-1,0-1q-3.3,0-6.5,0c-.7,0-.7,1,0,1Z" fill="#4a4b54"/></g></g></g><g><g><g><path d="M330.6,606.1q3.3,0,6.5,0c.7,0,.7-1,0-1q-3.2,0-6.5,0c-.6,0-.6,1,0,1Z" fill="#4a4b54"/></g></g><g><g><path d="M330.7,609.6q3.2,0,6.5,0c.6,0,.6-1,0-1q-3.3,0-6.5,0c-.7,0-.7,1,0,1Z" fill="#4a4b54"/></g></g><g><g><path d="M330.8,613.2q3.2,0,6.5,0c.6,0,.6-1,0-1q-3.3,0-6.5,0c-.7,0-.7,1,0,1Z" fill="#4a4b54"/></g></g><g><g><path d="M330.8,616.7q3.3,0,6.5,0c.7,0,.7-1,0-1q-3.2,0-6.5,0c-.6,0-.6,1,0,1Z" fill="#4a4b54"/></g></g></g></g><g><path d="M379.8,684.6h-70.2v-5.7h70.2v5.7Z" fill="#e7e6e9"/></g></g><g><g id="eSbKrz87luj486_tr" transform="translate(457.300003,601.650024) rotate(0)"><g transform="translate(-457.300003,-601.650024)"><path d="M446.9,546.1q-.2.9-.2,1.9v106c0,6,4.8,10.8,10.8,10.8s10.8-4.8,10.8-10.8v-106q0-1-.2-1.9h-21.2Z" opacity="0.7" fill="#fff"/><path d="M470.2,546.7h-25.7c-2.3,0-4.2-1.8-4.2-4.1s1.9-4.1,4.2-4.1h25.7c2.2,0,4.1,1.8,4.1,4.1s-1.9,4.1-4.1,4.1Z" fill="#fff"/><g opacity="0.4"><path d="M451,591.1c-.8,0-1.5-.7-1.5-1.5v-36.4c0-.9.7-1.6,1.5-1.6.9,0,1.6.7,1.6,1.6v36.4c0,.8-.7,1.5-1.6,1.5Z" fill="#9bd5fb"/></g><g><g><g><path d="M448.5,593.4v59.6c0,5.5,3.9,10,8.8,10c4.8,0,8.7-4.5,8.7-10v-59.6h-17.5Z" fill="#df8900"/></g></g><g><g><g><path d="M457.9,606.1c2.6,0,2.6-4,0-4s-2.6,4,0,4Z" fill="#fff"/></g></g><g><g><path d="M454.5,619.4c.8,0,.9-1.3,0-1.3s-.9,1.3,0,1.3Z" fill="#fff"/></g></g><g><g><path d="M455.9,646.7c.8,0,.8-1.3,0-1.3-.9,0-.9,1.3,0,1.3Z" fill="#fff"/></g></g><g><g><path d="M458.2,633.4c2.6,0,2.6-4,0-4s-2.7,4,0,4Z" fill="#fff"/></g></g></g><path d="M464.3,593.5v56.4c0,5.5-4,10-8.8,10-2.6,0-4.9-1.3-6.5-3.3c1.3,3.8,4.5,6.5,8.2,6.5c4.9,0,8.8-4.5,8.8-10v-59.6h-1.7Z" fill="#ce6802"/></g></g></g><g id="eSbKrz87luj509_tr" transform="translate(503.349991,601.300018) rotate(0)"><g transform="translate(-503.349991,-601.300018)"><path d="M492.9,545.7q-.1,1-.2,2v106c0,5.9,4.9,10.8,10.8,10.8c6,0,10.8-4.9,10.8-10.8v-106q0-1-.2-2h-21.2Z" opacity="0.7" fill="#fff"/><path d="M516.2,546.4h-25.7c-2.3,0-4.1-1.9-4.1-4.1c0-2.3,1.8-4.2,4.1-4.2h25.7c2.3,0,4.1,1.9,4.1,4.2c0,2.2-1.8,4.1-4.1,4.1Z" fill="#fff"/><g opacity="0.4"><path d="M497.1,590.7c-.9,0-1.6-.6-1.6-1.5v-36.4c0-.8.7-1.5,1.6-1.5.8,0,1.5.7,1.5,1.5v36.4c0,.9-.7,1.5-1.5,1.5Z" fill="#9bd5fb"/></g><g><g><g><path d="M494.5,609.1v45.9c0,4.2,4,7.6,8.8,7.6s8.7-3.4,8.7-7.6v-45.9h-17.5Z" fill="#5b04da"/></g></g><g><g><g><path d="M504,605.8c2.6,0,2.6-4.1,0-4.1-2.7,0-2.7,4.1,0,4.1Z" fill="#fff"/></g></g><g><g><path d="M500.5,619.1c.9,0,.9-1.4,0-1.4s-.9,1.4,0,1.4Z" fill="#fff"/></g></g><g><g><path d="M501.9,646.4c.9,0,.9-1.4,0-1.4s-.9,1.4,0,1.4Z" fill="#fff"/></g></g><g><g><path d="M504.2,633.1c2.6,0,2.6-4.1,0-4.1s-2.6,4.1,0,4.1Z" fill="#fff"/></g></g></g><g><path d="M510.3,609.2v43.4c0,4.2-3.9,7.7-8.6,7.7-2.6,0-4.8-1-6.4-2.6c1.2,3,4.4,5,8.1,5c4.7,0,8.6-3.4,8.6-7.6v-45.9h-1.7Z" fill="#4e00b0"/></g></g></g></g><g id="eSbKrz87luj533_tr" transform="translate(551.299988,601.800018) rotate(0)"><g transform="translate(-551.299988,-601.800018)"><path d="M540.9,546.2q-.2,1-.2,1.9v106.1c0,5.9,4.8,10.8,10.8,10.8c5.9,0,10.8-4.9,10.8-10.8v-106.1q0-.9-.2-1.9h-21.2Z" opacity="0.7" fill="#fff"/><path d="M564.1,546.9h-25.7c-2.2,0-4.1-1.9-4.1-4.1c0-2.3,1.9-4.2,4.1-4.2h25.7c2.3,0,4.2,1.9,4.2,4.2c0,2.2-1.9,4.1-4.2,4.1Z" fill="#fff"/><g opacity="0.4"><path d="M545,591.2c-.8,0-1.5-.6-1.5-1.5v-36.4c0-.8.7-1.5,1.5-1.5.9,0,1.6.7,1.6,1.5v36.4c0,.9-.7,1.5-1.6,1.5Z" fill="#9bd5fb"/></g><g><g><g><path d="M542.5,597.1v56.6c0,5.2,3.9,9.4,8.7,9.4c4.9,0,8.8-4.2,8.8-9.4v-56.6h-17.5Z" fill="#fd0003"/></g></g><g><g><g><path d="M551.9,606.3c2.6,0,2.6-4.1,0-4.1s-2.6,4.1,0,4.1Z" fill="#fff"/></g></g><g><g><path d="M548.5,619.6c.8,0,.8-1.4,0-1.4-.9,0-.9,1.4,0,1.4Z" fill="#fff"/></g></g><g><g><path d="M549.8,646.9c.9,0,.9-1.4,0-1.4-.8,0-.8,1.4,0,1.4Z" fill="#fff"/></g></g><g><g><path d="M552.1,633.6c2.6,0,2.6-4.1,0-4.1s-2.6,4.1,0,4.1Z" fill="#fff"/></g></g></g><path d="M558.2,597.1v53.6c0,5.3-3.9,9.5-8.7,9.5-2.6,0-4.9-1.2-6.5-3.1c1.3,3.6,4.5,6.1,8.2,6.1c4.8,0,8.8-4.2,8.8-9.4v-56.7h-1.8Z" fill="#ad040d"/></g></g></g><g id="eSbKrz87luj556_tr" transform="translate(601.299988,601.350037) rotate(0)"><g transform="translate(-601.299988,-601.350037)"><path d="M590.9,545.8q-.2.9-.2,1.9v106c0,6,4.8,10.8,10.8,10.8c5.9,0,10.8-4.8,10.8-10.8v-106q0-1-.2-1.9h-21.2Z" opacity="0.7" fill="#fff"/><path d="M614.2,546.4h-25.7c-2.3,0-4.2-1.8-4.2-4.1s1.9-4.1,4.2-4.1h25.7c2.2,0,4.1,1.8,4.1,4.1s-1.9,4.1-4.1,4.1Z" fill="#fff"/><g opacity="0.4"><path d="M595,590.8c-.8,0-1.5-.7-1.5-1.6v-36.4c0-.8.7-1.5,1.5-1.5.9,0,1.6.7,1.6,1.5v36.4c0,.9-.7,1.6-1.6,1.6Z" fill="#9bd5fb"/></g><g><g><path d="M592.5,593.1v59.6c0,5.5,3.9,10,8.8,10c4.8,0,8.7-4.5,8.7-10v-59.6h-17.5Z" fill="#fff200"/></g><g><g><g><path d="M601.9,605.8c2.6,0,2.6-4,0-4s-2.6,4,0,4Z" fill="#fff"/></g></g><g><g><path d="M598.5,619.1c.8,0,.8-1.3,0-1.3-.9,0-.9,1.3,0,1.3Z" fill="#fff"/></g></g><g><g><path d="M599.9,646.4c.8,0,.8-1.3,0-1.3-.9,0-.9,1.3,0,1.3Z" fill="#fff"/></g></g><g><g><path d="M602.1,633.1c2.6,0,2.7-4,0-4-2.6,0-2.6,4,0,4Z" fill="#fff"/></g></g></g><path d="M608.3,593.2v56.4c0,5.5-4,10-8.8,10-2.6,0-4.9-1.3-6.5-3.3c1.3,3.8,4.5,6.5,8.2,6.5c4.9,0,8.8-4.5,8.8-10v-59.6h-1.7Z" opacity="0.4" fill="#ffb200"/></g></g></g><g><g><path d="M635.8,553.9v131.5h-6.6v-15.3h-197.1v14.7h-6.6v-131.5h6.6v8.5h197.1v-7.9h6.6Zm-6.6,109.5v-93.6h-197.1v93.6h197.1Z" fill="#1e2144" fill-rule="evenodd"/></g></g></g><g><g id="eSbKrz87luj582_tr" transform="translate(211.574982,593.350006) rotate(0)"><g transform="translate(-211.574982,-593.350006)"><g opacity="0.6"><path d="M231.9,584.8v-52h-29.4v19.9l-13.9-13.9L172,555.3l30.5,30.5v.4c-12.2,6-20.6,18.5-20.6,33.1c0,20.4,16.5,36.9,36.9,36.9s36.9-16.5,36.9-36.9c0-15.8-9.9-29.3-23.8-34.5Z" fill="#fbfffa"/></g><g><path d="M185.5,611.7c-.6,2.4-.9,4.9-.9,7.5c0,19,15.4,34.4,34.4,34.4s34.4-15.4,34.4-34.4c0-2.6-.3-5.1-.8-7.5h-67.1Z" fill="#ffd100"/></g><path d="M167.9,556.3l20.8-20.8c.6-.6,1.5-.6,2.1,0c.6.5.6,1.5,0,2L170,558.4c-.6.5-1.5.5-2.1,0-.6-.6-.6-1.5,0-2.1Z" fill="#fbfffa"/><g opacity="0.1"><path d="M229.5,586.1v-52.2h-12.3v119.4c19.4,1,36.2-14.5,36.2-33.9c0-15.2-9.9-28.2-23.9-33.3Z" fill="#606060"/></g><path d="M235.1,534.2h-35.8c-1,0-1.8-.9-1.8-1.9s.8-1.8,1.8-1.8h35.8c1,0,1.8.8,1.8,1.8s-.8,1.9-1.8,1.9Z" fill="#fbfffa"/></g></g><g><path d="M255.7,629.6h-79.3v-6.9h79.3v6.9Z" fill="#606060"/><g><path d="M177.3,625.9c0,1.4-9.2,49.6-9.2,49.6" fill="none" stroke="#1e2144" stroke-width="1.8" stroke-miterlimit="10"/></g><g><path d="M274.9,685.4h-116.9c0-5.4,4.4-9.8,9.8-9.8h97.3c5.4,0,9.8,4.4,9.8,9.8Z" fill="#232446"/></g><g><path d="M256.6,626.5c0,1.4,9.2,49.6,9.2,49.6" fill="none" stroke="#1e2144" stroke-width="1.8" stroke-miterlimit="10"/></g></g></g><g><g><g><g><g><path d="M714.5,392q0-6.8,0-13.6c0-4.8-.8-10.5.9-15.2c1.4-4.1,4.8-7.5,8.9-8.9c2.4-.8,4.8-.9,7.3-.9c5.1,0,10.5.5,15.6,0c2-.2,3.8-2.4,5.2-3.7q3-2.6,6-5.3c2.2-1.9-1-5-3.1-3.1q-4.8,4.1-9.6,8.3.8-.3,1.6-.7-6,0-12.1,0c-4.8,0-9.6-.2-14.1,1.9-6.8,3.1-11,10-11.1,17.4-.1,3.6,0,7.1,0,10.7q0,6.6,0,13.1c0,2.9,4.5,2.9,4.5,0Z" fill="#fd0003"/></g></g><g><g><path d="M754.7,363.5q7.6-8,15.2-15.9q1.1-1.2,2.2-2.3c2-2.1-1.2-5.3-3.2-3.2q-7.6,8-15.2,15.9-1.1,1.2-2.2,2.3c-2,2.1,1.2,5.3,3.2,3.2Z" fill="#fd0003"/></g></g><g><g><path d="M766.8,364.2q8.2-8.4,16.4-16.9q1.2-1.2,2.3-2.3c2-2.1-1.2-5.3-3.2-3.2q-8.2,8.4-16.4,16.8-1.1,1.2-2.3,2.4c-2,2.1,1.2,5.3,3.2,3.2Z" fill="#fd0003"/></g></g><g><g><path d="M779.5,364.4q7.4-8.4,14.8-16.8q1.1-1.1,2.1-2.3c.8-.9.9-2.3,0-3.2-.8-.8-2.4-.9-3.2,0q-7.4,8.4-14.8,16.7-1,1.2-2,2.4c-.8.9-.9,2.3,0,3.2.8.8,2.3.9,3.1,0Z" fill="#fd0003"/></g></g><g><g><path d="M792.8,364.5q7.8-8.5,15.5-17.1q1.1-1.2,2.2-2.4c.8-.9.9-2.3,0-3.2-.8-.9-2.3-.9-3.2,0q-7.7,8.5-15.4,17.1-1.1,1.2-2.3,2.4c-.8.9-.8,2.3,0,3.2.9.9,2.4.9,3.2,0Z" fill="#fd0003"/></g></g><g><g><path d="M806.1,363.8q7.3-7.9,14.6-15.8q1.1-1.1,2.1-2.2c1.9-2.1-1.2-5.3-3.2-3.2q-7.3,7.9-14.6,15.8-1.1,1.2-2.1,2.3c-1.9,2.1,1.2,5.3,3.2,3.1Z" fill="#ffb200"/></g></g><g><g><path d="M818,363.8q7.5-7.9,15-15.9q1.1-1.1,2.2-2.3c2-2.1-1.2-5.3-3.2-3.1q-7.5,7.9-15,15.9-1.1,1.1-2.2,2.3c-2,2.1,1.2,5.3,3.2,3.1Z" fill="#ffb200"/></g></g><g><g><path d="M829.2,364.3c2.9,0,2.9-4.5,0-4.5s-2.9,4.5,0,4.5Z" fill="#ffb200"/></g></g><g><g><path d="M843.9,343.1q-7.4,7.9-14.8,15.8-1.1,1.1-2.2,2.3c-2,2.1,1.2,5.3,3.2,3.2q7.4-7.9,14.9-15.8q1-1.1,2.1-2.3c2-2.1-1.2-5.3-3.2-3.2Z" fill="#ffb200"/></g></g><g><g><path d="M856.9,343.1q-7,7.6-14,15.2-1,1.1-2,2.2c-.8.9-.9,2.3,0,3.2.8.8,2.3.9,3.2,0q7-7.6,14-15.2q1-1.1,2-2.2c.8-.9.8-2.3,0-3.2-.9-.8-2.4-.9-3.2,0Z" fill="#ffb200"/></g></g><g><g><path d="M897.7,456.2q0-29.1,0-58.2q0-15.1,0-30.2c0-3.1.1-6.1-1.3-9-1.7-3.9-5.2-6.9-9.4-7.9-2.1-.5-4.3-.3-6.4-.3q-5.2,0-10.5,0c-2,0-4.3-.3-6.4,0-2.3.3-4.4,3.7-5.9,5.3q-2.7,2.9-5.3,5.8c-2,2.1,1.2,5.3,3.1,3.2q4.9-5.3,9.7-10.5-.8.3-1.6.7q6.2,0,12.3,0c4.2,0,9.8-.9,13.4,1.8c5.1,3.9,3.8,12,3.8,17.7q0,31.7,0,63.4q0,9.1,0,18.2c0,2.9,4.5,2.9,4.5,0Z" fill="#ffb200"/></g></g></g><g><path d="M774,519.5l-33.8-60.9v-54.3h-48v55.5l-32.1,59.9c-4.3,8,1.5,17.7,10.6,17.7h92.8c9.2,0,15-9.9,10.5-17.9Z" opacity="0.5" fill="#fbfffa"/><g><path d="M738.7,399.7h-44.9c-2.1,0-3.8-1.7-3.8-3.9v-1.9c0-2.2,1.7-3.9,3.8-3.9h44.9c2.1,0,3.9,1.7,3.9,3.9v1.9c0,2.2-1.8,3.9-3.9,3.9Z" fill="#464a8a"/></g><g><g><path d="M707,485.8q.2,0,.5,0t.6-.1q.2-.1.5-.3.2-.2.3-.5t.1-.6q0-.2-.1-.4-.1-.4-.3-.7-.2-.1-.4-.2-.3-.2-.7-.2-.3,0-.5,0-.3,0-.6.1t-.5.3-.3.5-.1.6q0,.2,0,.4.1.4.4.7.2.1.3.2.4.2.8.2Z" fill="#c05656"/></g></g><g><g><g><path d="M742,476.9c.9,0,.9-1.5,0-1.5-1,0-1,1.5,0,1.5Z" fill="#fd0003"/></g><g><g id="eSbKrz87luj647_to" transform="translate(696.262482,482.299988)"><g transform="translate(-696.262482,-482.299988)"><path d="M696.3,485.3c3.8,0,3.8-6,0-6-3.9,0-3.9,6,0,6Z" fill="#fd0003"/></g></g><g><path d="M743.7,487.8q.2,0,.3,0q.6,0,1.2-.2.5-.2.9-.7.5-.4.6-.9.3-.6.3-1.2-.1-.4-.1-.8-.2-.8-.8-1.3-.3-.2-.6-.5-.7-.4-1.5-.4-.1,0-.3,0-.6,0-1.1.3-.6.1-1,.6-.4.4-.6,1-.3.5-.3,1.1.1.4.2.8.2.8.7,1.3.3.3.6.5.7.4,1.5.4Z" fill="#fd0003"/></g><g><path d="M720.8,486c3.8,0,3.8-6,0-6-3.9,0-3.9,6,0,6Z" fill="#fd0003"/></g><g><path d="M733,469.7c3.9,0,3.9-6,0-6-3.8,0-3.8,6,0,6Z" fill="#fd0003"/></g><g id="eSbKrz87luj655_to" transform="translate(710.299988,465.399994)"><g transform="translate(-710.299988,-465.399994)"><path d="M710.3,468.4c3.9,0,3.9-6,0-6s-3.9,6,0,6Z" fill="#fd0003"/></g></g><g><path d="M736.1,485.9q.2-.2.3-.3.2-.2.3-.5.1-.2.1-.5q0-.4-.1-.6-.1-.3-.3-.5-.2-.1-.3-.2-.4-.2-.8-.2-.2,0-.4,0-.4.1-.6.4-.2.1-.3.2-.2.3-.3.5-.1.3-.1.6t.1.6.3.5q.2.1.3.2.4.2.8.2.2,0,.4,0q.3-.2.6-.4Z" fill="#fd0003"/></g><g><path d="M730,477.9c1.9,0,1.9-3,0-3-2,0-2,3,0,3Z" fill="#fd0003"/></g><g><path d="M687.1,483.3c1,0,1-1.5,0-1.5-.9,0-.9,1.5,0,1.5Z" fill="#fd0003"/></g><g><path d="M694.5,472.5c1.9,0,1.9-3,0-3-2,0-2,3,0,3Z" fill="#fd0003"/></g><g><path d="M706.5,476.4c1.9,0,1.9-3,0-3-2,0-2,3,0,3Z" fill="#fd0003"/></g><g><path d="M721.8,471.5q-.1,0-.3,0-.1,0-.3.1-.1.1-.2.2t-.2.2q0,.1,0,.3q0,.1,0,.2.1.2.2.3t.2.1q.1.1.3.1t.3,0q.1.1.3,0q.1-.1.2-.2t.2-.2q0-.1,0-.3q0-.1,0-.2q0-.2-.2-.3-.1-.1-.1-.1-.2-.2-.4-.2Z" fill="#fd0003"/></g><g><path d="M722.3,465.9c1.9,0,1.9-3,0-3s-1.9,3,0,3Z" fill="#fd0003"/></g><g><path d="M699.3,465.4c1,0,1-1.5,0-1.5-.9,0-.9,1.5,0,1.5Z" fill="#fd0003"/></g><g><path d="M728.2,459.3c.9,0,.9-1.5,0-1.5-1,0-1,1.5,0,1.5Z" fill="#fd0003"/></g><g><path d="M710,456.7c2,0,2-3,0-3-1.9,0-1.9,3,0,3Z" fill="#fd0003"/></g></g></g></g><g clip-path="url(#eSbKrz87luj683)"><g><g><path d="M676.2,491.3c0,0,4.7-4.6,10.2-.4c3.7,2.8,3.2-2.5,7.6-2.5c4.5,0,2.6.7,6.7,3.2c4.1,2.6,2.5-3.4,6.8-3.6c4.2-.1,2,1.6,6.8,3.3s4.4-3.4,8.3-3.1c4,.4,3.6,3.6,6.5,3.6s3.2-3.4,7.2-3.1c3.9.4,2.2,4.4,6.3,2.7c4-1.7,5.1-3.9,8.5-3c2.2.8,3.2,1.9,3.2,1.9l22,38.9-8.6,7.7h-106.3l-7.7-11.2l22.5-34.4Z" fill="#fd0003"/></g><g><path d="M747.7,488.7l17.7,31.7c0,0,8.6,17.7-44.9,13.3c33.7,2.9,50.7,5.2,54.1-5.7s-20.3-38.9-20.3-38.9-3.2-2.2-6.6-.4Z" fill="#bc0811"/></g></g><clipPath id="eSbKrz87luj683"><path d="M769.99,517.88L736.8,458.15v-53.21h-20.95-1.02l-18.49.21-.34,53.28-30.3,59.23c-3.36,5.96-3.23,15.91,5.75,16.34h88.72c9.02,0,14.23-8.26,9.82-16.12Z"/></clipPath></g><path d="M741.9,405h-51.1c-1.9,0-3.4-1.5-3.4-3.4s1.5-3.4,3.4-3.4h51.1c1.9,0,3.4,1.5,3.4,3.4s-1.5,3.4-3.4,3.4Z" fill="#fbfffa"/><path d="M769.8,517.6l-33.5-60v-53.2h-22l.4,129.7h44.8c11.2-.3,14.7-9.5,10.3-16.5Z" opacity="0.1" fill="#606060"/></g><g><path d="M913.1,495.6l33.1-33.1L927.7,444l-16.1,16.1v-25.5h-34.1v23.1l-16.1-16.1-19.2,19.2l35.3,35.3v.4c-14.2,7-23.9,21.6-23.9,38.5c0,23.6,19.2,42.8,42.8,42.8c23.7,0,42.9-19.2,42.9-42.8c0-17.8-10.8-32.9-26.2-39.4Z" opacity="0.5" fill="#fbfffa"/><path d="M841.8,462.7l21.6-21.6c.7-.7.7-1.9,0-2.6l-.3-.3c-.8-.7-1.9-.7-2.7,0l-21.6,21.6c-.7.7-.7,1.9,0,2.6l.4.3c.7.8,1.9.8,2.6,0Z" fill="#fbfffa"/><g><path d="M950.3,461.9l-21.4-21.5c-.2-.2-.2-.5,0-.6l1.7-1.8c2.9-2.9,7.7-2.9,10.6,0l11.5,11.5c2.9,2.9,2.9,7.7,0,10.6l-1.7,1.8c-.2.1-.5.1-.7,0Z" fill="#42498d"/></g><g><path d="M859.8,440l-19.5,19.5c-.2.2-.4.2-.6,0l-1.5-1.5c-2.6-2.7-2.6-7,0-9.6l10.5-10.5c2.6-2.6,6.9-2.6,9.5,0l1.6,1.6c.1.1.1.4,0,.5Z" fill="#42498d"/></g><path d="M909,566.9h-15.8v-134.3h15.8v134.3Z" opacity="0.1" fill="#606060"/><g><g><g><g><path d="M894,509.6q.2,0,.4,0q.1,0,.3-.1.1-.1.2-.2t.2-.2q0-.1,0-.3q0-.1,0-.2q0-.2-.2-.3-.1-.1-.1-.1-.2-.1-.4-.1t-.4,0q-.1,0-.2,0-.2.1-.3.2t-.1.2q-.1.2-.1.3t0,.2q.1.2.2.3t.2.2.3.1Z" fill="#ffb200"/></g></g><g><g><g><path d="M894.9,515.9q-.1,0-.2,0-.4,0-.8.2-.5.2-.8.5t-.4.7q-.2.4-.2.9q0,.3.1.6.1.5.5,1q.3.1.5.3.5.3,1.1.3.1,0,.2,0q.5,0,.9-.2.4-.1.7-.4t.5-.8q.2-.4.1-.8q0-.3,0-.6-.2-.6-.6-1-.2-.2-.5-.4-.5-.3-1.1-.3Z" fill="#ffb200"/></g></g><g><g><path d="M872.9,520.3c2.9,0,2.9-4.5,0-4.5s-2.9,4.5,0,4.5Z" fill="#ffb200"/></g></g><g id="eSbKrz87luj707_to" transform="translate(920.649994,515.05011)"><g transform="translate(-920.649994,-515.05011)"><g><path d="M919.2,513.3q-.1.1-.2.2-.3.3-.5.7t-.2.9.2.9.5.7q.2.2.5.3.5.4,1.1.4.3-.1.6-.1.6-.2,1-.6.1-.1.2-.2.3-.3.4-.7.2-.4.2-.9q0-.4-.2-.8-.1-.4-.4-.8-.3-.1-.5-.3-.5-.3-1.1-.3-.3,0-.6.1-.6.1-1,.5Z" fill="#ffb200"/></g></g></g><g><g><path d="M901.7,504.4c2.9,0,2.9-4.5,0-4.5s-2.9,4.5,0,4.5Z" fill="#ffb200"/></g></g><g id="eSbKrz87luj713_to" transform="translate(884.150024,507.050018)"><g transform="translate(-884.150024,-507.050018)"><g><path d="M881.9,506.9q0,.1,0,.2q0,.5.2.9t.5.7.7.5.9.2q.3-.1.6-.1.5-.2,1-.6.1-.2.3-.5.3-.5.3-1.1q0-.1,0-.2q0-.4-.2-.8-.1-.4-.4-.8-.3-.3-.8-.4-.4-.2-.8-.2-.3,0-.6.1-.6.1-1,.5-.2.3-.4.5-.3.5-.3,1.1Z" fill="#ffb200"/></g></g></g><g><g><path d="M906.5,513.7c1.9,0,1.9-3,0-3-2,0-2,3,0,3Z" fill="#ffb200"/></g></g><g><g><path d="M890,498.4c1.9,0,1.9-3,0-3-2,0-2,3,0,3Z" fill="#ffb200"/></g></g><g><g><path d="M872.1,509.5c1.9,0,1.9-3,0-3s-1.9,3,0,3Z" fill="#ffb200"/></g></g><g><g><path d="M915.5,506.2c1.9,0,1.9-3,0-3s-1.9,3,0,3Z" fill="#ffb200"/></g></g><g><g><path d="M900.3,494.9c1,0,1-1.5,0-1.5-.9,0-.9,1.5,0,1.5Z" fill="#ffb200"/></g></g><g><g><path d="M884.9,489.3c.9,0,.9-1.5,0-1.5-1,0-1,1.5,0,1.5Z" fill="#ffb200"/></g></g><g><g><path d="M883.5,516.2c1,0,1-1.5,0-1.5s-1,1.5,0,1.5Z" fill="#ffb200"/></g></g><g><g><path d="M922.1,508c1,0,1-1.5,0-1.5-.9,0-.9,1.5,0,1.5Z" fill="#ffb200"/></g></g><g><g><path d="M906.4,488.2q0,.1-.1.2t-.2.2q0,.1,0,.3q0,.1,0,.3.1.1.2.2t.1.1q.2.1.4.1.1,0,.2,0q.2,0,.3-.2.1-.1.2-.1.1-.1.2-.3q0-.1,0-.3q0-.1,0-.3-.1-.1-.2-.2t-.1-.1q-.2-.1-.4-.1-.1,0-.2,0-.2.1-.4.2Z" fill="#ffb200"/></g></g></g></g><g><path d="M933.4,525.1c0,0-2-4.5-4.5-5.1-5.5-1.1-6.5,3.1-9.2,3.6-5.9,1.1-4.4-4.2-10.5-5.1-6.2-.8-6.4,6-13.2,6.5-6.9.5-6.9-6.7-13.6-4.4-6.6,2.2-7.3,6.3-14.5,1.7-6.7-4.4-9.8,2-10.2,2.8q0,.1,0,.1t0,0v.1c-.9,3.3-1.4,6.8-1.4,10.4c0,21.7,17.6,39.3,39.3,39.3s39.3-17.6,39.3-39.3c0-3.7-.6-7.2-1.5-10.6Z" fill="#ffb200"/><g><path d="M933.4,525.3c0,0-2-4.6-4.5-5.1q-.2,0-.3-.1c.9,1.4,1.6,2.8,1.6,2.8.9,3.4,1.4,6.9,1.4,10.6c0,21.7-17.5,39.3-39.3,39.3-8,0-15.5-2.4-21.7-6.6c6.8,5.6,15.5,9,25,9c21.7,0,39.3-17.6,39.3-39.3c0-3.7-.6-7.2-1.5-10.6Z" fill="#d39009"/></g><path d="M857,541.3c0-3.6.6-7.1,1.5-10.4q0-.1,0-.1t0,0c.4-.9,3.5-7.2,10.2-2.9c7.2,4.6,7.8.5,14.5-1.7s6.7,4.9,13.5,4.4c6.9-.5,7.1-7.3,13.2-6.5c6.2.9,4.6,6.2,10.5,5.1c2.8-.5,3.8-4.7,9.3-3.5c2.5.5,4.5,5.1,4.5,5.1q.3,1.2.6,2.5-.3-4.2-1.4-8.2c0,0-2-4.5-4.5-5.1-5.5-1.1-6.5,3.1-9.2,3.6-5.9,1.1-4.4-4.2-10.5-5.1-6.2-.8-6.4,6-13.2,6.5-6.9.5-6.9-6.7-13.5-4.4-6.7,2.2-7.4,6.3-14.6,1.7-6.7-4.4-9.8,2-10.2,2.8q0,.1,0,.1t0,0v.1c-.9,3.3-1.4,6.8-1.4,10.4c0,2.9.3,5.7.9,8.3-.1-.9-.2-1.8-.2-2.7Z" opacity="0.4" fill="#fff"/></g></g><g><path d="M915.4,430.6h-41.1c-.3,0-.5-.2-.5-.5v-.9c0-4.5,3.7-8.2,8.2-8.2h25.7c4.5,0,8.2,3.7,8.2,8.2v.9c0,.3-.2.5-.5.5Z" fill="#42498d"/></g><path d="M947.8,464.2l-21.5-21.6c-.8-.7-.8-1.9,0-2.6l.3-.3c.7-.7,1.9-.7,2.6,0l21.6,21.6c.7.7.7,1.9,0,2.6l-.3.3c-.8.7-1.9.7-2.7,0Z" fill="#fbfffa"/><path d="M916.7,434.5h-43.9c-1.2,0-2.2-1-2.2-2.2s1-2.1,2.2-2.1h43.9c1.2,0,2.2.9,2.2,2.1s-1,2.2-2.2,2.2Z" fill="#fbfffa"/><path d="M911.7,473.7v19l32.8-33.4-8.3-9.1-24.5,23.5Z" opacity="0.1" fill="#606060"/><g opacity="0.5"><g><path d="M880.3,439.6q0,16.7,0,33.3q0,2.4,0,4.8c0,1.9,3,1.9,3,0q0-16.7,0-33.4q0-2.3,0-4.7c0-1.9-3-1.9-3,0Z" fill="#98d1fc"/></g></g></g></g><g><g><g><g><path d="M892.6,612.6c-.6,10-.8,20.2-.4,30.3.4,11,1.6,25.9,11.4,33c6.4,4.6,14.3,2.4,20.6-1.2.9-.4.1-1.7-.7-1.3-6,3.4-13.5,5.6-19.5.9-4.7-3.6-7-9.7-8.4-15.3-2.9-11.6-2.3-24.2-1.9-36q.1-5.2.4-10.4c.1-1-1.4-1-1.5,0Z" fill="#737772"/></g></g><g id="eSbKrz87luj761_tr" transform="translate(893.957184,599.747131) rotate(0)"><g transform="translate(-893.957184,-599.747131)"><path d="M894.1,612.6c0,0,8.5-1.7,8.3-9.2-.1-7.4-8.5-16.2-9.3-16.5-.9-.2-.3,4.9-4.3,8.9s-6.4,14.2,5.3,16.8Z" fill="#fff200"/><path d="M894.3,611.5c0,0,7.2-1.5,7.1-7.9s-7.3-13.9-8-14.1-.2,4.2-3.6,7.6c-3.5,3.4-5.6,12.1,4.5,14.4Z" opacity="0.4" fill="#ffb200"/><path d="M894.4,609.9c0,0,5.5-1.2,5.3-6.2-.1-5-5.4-10.8-5.9-11-.6-.2-.2,3.2-2.8,5.9-2.5,2.7-4.1,9.5,3.4,11.3Z" fill="#fff200"/></g></g></g><g><path d="M899.1,625.2h-10.9v-8h10.9v8Z" opacity="0.6" fill="#fbfffa"/><path d="M922.6,645.5h-13.7c-3.4-2.3-7.6-6.3-7.1-11.8-8.5-.1-15.7-.7-15.7-.7l-.8.5c0,0-.5,7.5-6.9,12h-13.5c-4.4,0-8,3.6-8,8.1v23.6c0,4.5,3.6,8.1,8,8.1h57.7c4.4,0,8-3.6,8-8.1v-23.6c0-4.5-3.6-8.1-8-8.1Z" opacity="0.6" fill="#fbfffa"/><g opacity="0.6"><path d="M858.8,663.2v12.4c0,4.5,3.4,8.1,7.6,8.1h54.9c4.2,0,7.6-3.6,7.6-8.1v-12.4h-70.1Z" fill="#98d1fc"/></g><g><path d="M913.7,634.3h-39.9v-9.1h39.9v9.1Z" fill="#42498d"/></g></g></g><g><path d="M716.6,567.3v36.8" fill="none" stroke="#737772" stroke-width="1.4" stroke-miterlimit="10"/><path d="M723.8,609.9h-13.2v-37.3h13.2v37.3Z" fill="#fbfffa"/><path d="M726.6,631.4h-19.8v-26.9h19.8v26.9Z" fill="#a09c9c"/><path d="M689.9,676.2c47.6-.4,53.4-1.5,53.4-1.5s-18.1-5.6-17.1-15.2q0-.6,0-1.1h6.3v-29.6h-32.2v29.6h7.5c.1,2.5-.6,9.7-17.9,17.8Z" fill="#fbfffa"/><path d="M750.2,685.8h-68.4c-3.1,0-5.6-2.5-5.6-5.6s2.5-5.6,5.6-5.6h68.4c3.1,0,5.6,2.5,5.6,5.6s-2.5,5.6-5.6,5.6Z" fill="#a09c9c"/><g id="eSbKrz87luj778_tr" transform="translate(716.574646,555.647156) rotate(0)"><g transform="translate(-716.574646,-555.647156)"><path d="M716.7,568.5c0,0,8.7-1.7,8.5-9.2s-8.7-16.2-9.5-16.5c-.9-.2-.3,4.9-4.4,8.9s-6.5,14.2,5.4,16.8Z" fill="#fff200"/><path d="M716.9,567.4c0,0,7.4-1.5,7.2-7.9-.1-6.4-7.4-13.9-8.1-14.1s-.2,4.1-3.7,7.6c-3.5,3.4-5.6,12.1,4.6,14.4Z" opacity="0.4" fill="#ffb200"/><path d="M717,565.7c0,0,5.6-1.1,5.4-6.1-.1-5-5.5-10.8-6-11-.6-.2-.2,3.2-2.8,5.9s-4.2,9.5,3.4,11.2Z" fill="#fff200"/></g></g></g><g><path d="M808.6,391.4h-12.8v10.6h3.3v282.8h6.4v-282.8h3.1v-10.6Z" fill="#1e2144"/><path d="M823.6,425.5v1.3h-84.5v3.5h84.5v1.8h2.3v-6.6h-2.3Z" fill="#1e2144"/><path d="M736.9,432.9h-42.8c-2.3,0-4.1-1.9-4.1-4.2s1.8-4.1,4.1-4.1h42.8c2.3,0,4.1,1.8,4.1,4.1s-1.8,4.2-4.1,4.2Z" fill="#606060"/><path d="M856.7,545.2h-70.1v-4.1h70.1v4.1Z" fill="#1e2144"/><path d="M938.7,546.6h-85.1c-1.8,0-3.3-1.5-3.3-3.3c0-1.9,1.5-3.3,3.3-3.3h85.1c1.9,0,3.3,1.4,3.3,3.3c0,1.8-1.4,3.3-3.3,3.3Z" fill="#606060"/><g><g><path d="M812.3,426.8c0,5.5-4.5,10.1-10,10.1-5.6,0-10.1-4.6-10.1-10.1c0-5.6,4.5-10.1,10.1-10.1c5.5,0,10,4.5,10,10.1Z" fill="#1e2144"/><path d="M810.5,426.8c0,4.6-3.7,8.3-8.3,8.3s-8.3-3.7-8.3-8.3s3.7-8.3,8.3-8.3s8.3,3.7,8.3,8.3Z" fill="#fbfffa"/></g><g><g><path d="M801.9,427.1c.6-.9,1.3-1.7,2-2.5.8-.8,1.5-1.5,2.4-2.2-.6,1-1.3,1.8-2,2.6-.8.7-1.5,1.5-2.4,2.1Z" fill="#1e2144"/></g><path d="M802.7,426.9c0,.3-.3.6-.6.6s-.6-.3-.6-.6c0-.4.3-.6.6-.6s.6.2.6.6Z" fill="#1f2244"/><g><path d="M797.6,431.9c.6-1,1.3-1.8,2-2.6.8-.8,1.5-1.6,2.4-2.2-.6.9-1.3,1.7-2,2.5-.8.8-1.5,1.6-2.4,2.3Z" fill="#1e2144"/></g></g></g><g><g><path d="M813,542.3c0,5.6-4.5,10.1-10.1,10.1s-10.1-4.5-10.1-10.1c0-5.5,4.5-10,10.1-10s10.1,4.5,10.1,10Z" fill="#1e2144"/><path d="M811.2,542.4c0,4.6-3.8,8.3-8.4,8.3s-8.3-3.7-8.3-8.3s3.7-8.3,8.3-8.3s8.4,3.7,8.4,8.3Z" fill="#fbfffa"/></g><g><g><path d="M802.6,542.6c.9.8,1.5,1.6,2.2,2.5.6.9,1.3,1.7,1.8,2.7-.9-.7-1.5-1.6-2.2-2.4-.6-.9-1.3-1.8-1.8-2.8Z" fill="#1e2144"/></g><path d="M802.8,543.5c-.3-.1-.6-.4-.5-.7c0-.3.4-.6.7-.5s.5.4.5.7c-.1.3-.4.5-.7.5Z" fill="#1f2244"/><g><path d="M798.7,537.6c.8.8,1.5,1.6,2.2,2.4.6.9,1.3,1.8,1.8,2.8-.8-.8-1.5-1.6-2.2-2.4-.7-.9-1.3-1.8-1.8-2.8Z" fill="#1e2144"/></g></g></g></g></g></g><g><g><path d="M113,691.4h13.8v234.8h-13.8v-234.8Z" fill="#1e2144"/></g><g><path d="M1125.4,690.3h13.7v234.8h-13.7v-234.8Z" fill="#1e2144"/></g><g><g><path d="M1157.3,708.5h-1058.1c-6.5,0-11.7-5.3-11.7-11.7c0-6.5,5.2-11.7,11.7-11.7h1058.1c6.5,0,11.7,5.2,11.7,11.7c0,6.4-5.2,11.7-11.7,11.7Z" fill="#434b8a"/></g><g opacity="0.6"><path d="M1158.5,700.2h-1057.1c-5.7,0-10.4-4-11.5-9.3-1,1.7-1.6,3.7-1.6,5.8c0,6.5,5.3,11.7,11.7,11.7h1057.2c6.4,0,11.7-5.2,11.7-11.7q-.1-1.2-.3-2.3c-2,3.5-5.8,5.8-10.1,5.8Z" fill="#1e2144"/></g></g><g opacity="0.2"><path d="M1134.8,923.9c0,7.2-229.8,13-513.2,13s-513.2-5.8-513.2-13s229.8-13,513.2-13s513.2,5.8,513.2,13Z" fill="#606060"/></g></g></g></g></g></svg>
